<svg width="69" height="68" viewBox="0 0 69 68" fill="none" xmlns="http://www.w3.org/2000/svg">
<rect x="0.333984" width="68" height="68" rx="34" fill="white"/>
<mask id="mask0_1872_38488" style="mask-type:luminance" maskUnits="userSpaceOnUse" x="20" y="10" width="29" height="48">
<path d="M48.5013 10.0098H20.168V57.9901H48.5013V10.0098Z" fill="white"/>
</mask>
<g mask="url(#mask0_1872_38488)">
<path d="M29.6072 41.6628C29.6072 41.0406 29.1173 40.6218 28.5138 40.7282L21.2545 42.008C20.6511 42.1144 20.1611 42.706 20.1611 43.3282V57.0389C20.1611 57.6612 20.6511 58.08 21.2545 57.9735L28.5138 56.6937C29.1173 56.5874 29.6072 55.9958 29.6072 55.3736V41.6628Z" fill="black"/>
<path fill-rule="evenodd" clip-rule="evenodd" d="M48.4998 10.961C48.4998 10.3388 48.0099 9.91997 47.4064 10.0263L40.1471 11.3062C39.5436 11.4126 39.0537 12.0041 39.0537 12.6264V26.3371C39.0537 26.9594 39.5436 27.3781 40.1471 27.2718L47.4064 25.9919C48.0099 25.8855 48.4998 25.294 48.4998 24.6718V10.961Z" fill="black"/>
<path d="M30.7898 14.1637C30.5095 13.5464 29.7571 13.1379 29.1105 13.2519L21.3327 14.6231C20.6861 14.7371 20.3887 15.3308 20.669 15.948L37.8709 53.8345C38.1511 54.4518 38.9036 54.8604 39.5502 54.7464L47.328 53.3752C47.9745 53.2612 48.2719 52.6675 47.9917 52.0502L30.7898 14.1637Z" fill="black"/>
</g>
</svg>
