<svg width="69" height="68" viewBox="0 0 69 68" fill="none" xmlns="http://www.w3.org/2000/svg">
<g clip-path="url(#clip0_1872_38485)">
<path d="M67.6428 42.2244C63.1017 60.4388 44.6524 71.5228 26.4359 66.9817C8.22782 62.4406 -2.85724 43.9913 1.68495 25.778C6.22395 7.56141 24.6721 -3.52472 42.8834 1.01641C61.0989 5.55753 72.1839 24.0089 67.6428 42.2244Z" fill="#F7931A"/>
<path d="M50.1104 30.5315C50.7862 26.0074 47.3415 23.5753 42.6315 21.9529L44.1594 15.8244L40.4279 14.8947L38.9404 20.8617C37.9607 20.6173 36.9535 20.3867 35.9526 20.1583L37.4507 14.152L33.7224 13.2223L32.1935 19.3487C31.3817 19.1638 30.5849 18.981 29.8114 18.7887L29.8156 18.7696L24.671 17.485L23.6786 21.4694C23.6786 21.4694 26.4464 22.1037 26.388 22.143C27.8989 22.5202 28.173 23.52 28.1262 24.3127L26.3859 31.2944C26.49 31.3209 26.6249 31.3592 26.7737 31.4187L26.3806 31.3209L23.94 41.1012C23.7551 41.5602 23.2866 42.2487 22.2304 41.9874C22.2676 42.0415 19.5189 41.3105 19.5189 41.3105L17.667 45.5818L22.5226 46.792C23.4257 47.0183 24.3108 47.2552 25.181 47.4783L23.6372 53.678L27.3634 54.6077L28.8934 48.475C29.9102 48.7512 30.8983 49.0062 31.8652 49.2464L30.3416 55.3504L34.072 56.2801L35.6158 50.0932C41.977 51.297 46.7614 50.8114 48.7727 45.059C50.3952 40.4265 48.693 37.7544 45.3462 36.0108C47.7835 35.4466 49.6206 33.8433 50.1104 30.5315ZM41.586 42.4835C40.4321 47.116 32.6334 44.6128 30.1036 43.9838L32.1521 35.7717C34.6808 36.4029 42.7877 37.6524 41.586 42.4835ZM42.7388 30.4645C41.6869 34.6784 35.1951 32.5375 33.0881 32.0126L34.9454 24.5645C37.0523 25.0894 43.8353 26.069 42.7388 30.4645Z" fill="white"/>
</g>
<defs>
<clipPath id="clip0_1872_38485">
<rect width="68" height="68" fill="white" transform="translate(0.666992)"/>
</clipPath>
</defs>
</svg>
