<svg width="69" height="68" viewBox="0 0 69 68" fill="none" xmlns="http://www.w3.org/2000/svg">
<g clip-path="url(#clip0_1872_38794)">
<path d="M34.667 68C53.4447 68 68.667 52.7777 68.667 34C68.667 15.2223 53.4447 0 34.667 0C15.8893 0 0.666992 15.2223 0.666992 34C0.666992 52.7777 15.8893 68 34.667 68Z" fill="#988430"/>
<path d="M34.6677 66.9109C52.8439 66.9109 67.5787 52.1762 67.5787 34C67.5787 15.8238 52.8439 1.08911 34.6677 1.08911C16.4916 1.08911 1.75684 15.8238 1.75684 34C1.75684 52.1762 16.4916 66.9109 34.6677 66.9109Z" fill="#7A6A2A"/>
<path d="M34.6667 66.2175C52.4599 66.2175 66.8842 51.7933 66.8842 34C66.8842 16.2068 52.4599 1.78253 34.6667 1.78253C16.8735 1.78253 2.44922 16.2068 2.44922 34C2.44922 51.7933 16.8735 66.2175 34.6667 66.2175Z" fill="#BA9F33"/>
<path fill-rule="evenodd" clip-rule="evenodd" d="M15.5324 30.369C15.3398 30.1931 15.1363 30.0168 14.9492 29.8409C14.7621 29.665 14.5698 29.4888 14.3773 29.3129L13.805 28.7689C13.7114 28.6753 13.6124 28.593 13.5188 28.499C13.4253 28.4167 13.3154 28.3232 13.2218 28.2405C12.4624 27.5198 11.6986 26.7992 10.9497 26.0782C11.7254 26.788 12.4849 27.4926 13.2606 28.2129L13.5301 28.4827C13.6236 28.5759 13.7227 28.6586 13.8162 28.7522L14.3881 29.2802C14.5807 29.4561 14.7679 29.6324 14.9604 29.8242C15.153 30.0161 15.3401 30.1927 15.5327 30.3682L15.5324 30.369ZM5.45349 30.2602C5.45349 30.2602 8.21519 30.5459 9.56323 30.7385C10.8119 30.9148 14.7182 31.5143 14.7182 31.5143L5.45349 30.2602ZM5.45349 30.2602C6.22923 30.3262 7.00498 30.4085 7.78072 30.4912C8.17675 30.5296 8.55646 30.5735 8.93618 30.6119L9.51898 30.6783C9.71156 30.7055 9.89869 30.7331 10.0913 30.7606L12.4022 31.1291L13.5573 31.3217C13.937 31.3877 14.3167 31.4595 14.7127 31.5255C14.333 31.4871 13.937 31.4319 13.5573 31.3768L12.4022 31.2118L10.0913 30.8709C9.89869 30.8433 9.71156 30.8045 9.51898 30.7773L8.93581 30.7102C8.5561 30.6718 8.16007 30.6167 7.78036 30.5724C7.00461 30.4792 6.22887 30.3798 5.45312 30.2591L5.45349 30.2602ZM14.4433 32.2338C14.4433 32.2338 11.4944 32.9823 10.4985 33.2685C9.51934 33.5379 6.55382 34.4403 6.55382 34.4403L14.4429 32.2342L14.4433 32.2338Z" fill="#CFB66C"/>
<path fill-rule="evenodd" clip-rule="evenodd" d="M14.4431 32.2338C13.7885 32.4264 13.1375 32.6135 12.4735 32.7898L10.5039 33.3178C9.84924 33.5104 9.19825 33.6975 8.54545 33.8901L7.56625 34.1596C7.24167 34.2532 6.91164 34.3355 6.57617 34.4294C6.9004 34.3206 7.23079 34.2093 7.55537 34.1157L8.53457 33.8024C9.18919 33.5985 9.84017 33.406 10.493 33.2025C11.1585 33.0375 11.8134 32.8612 12.4789 32.7017C13.1114 32.5421 13.7773 32.3829 14.4431 32.2342V32.2338ZM6.96676 36.2558C7.29099 36.1347 11.0323 34.391 11.9016 33.9837C12.3368 33.7799 13.6018 33.3309 13.6018 33.3309L6.96676 36.2558Z" fill="#CFB66C"/>
<path fill-rule="evenodd" clip-rule="evenodd" d="M6.96618 36.2558C7.25196 36.147 7.52179 36.0139 7.79669 35.8873L8.61088 35.5076L10.2451 34.721C10.7891 34.4624 11.3178 34.177 11.8789 33.934C12.165 33.8132 12.4512 33.7142 12.7369 33.6206L13.1721 33.4832C13.3205 33.4447 13.4583 33.4005 13.6073 33.3621C13.0633 33.6206 12.4907 33.8408 11.946 34.0936C11.402 34.3634 10.8456 34.5835 10.2842 34.8254L8.62284 35.5569C8.06506 35.7829 7.52106 36.0248 6.96582 36.2558H6.96618ZM7.32885 37.779C7.32885 37.779 10.7176 35.793 11.8839 35.1547C12.4947 34.8138 14.4698 33.8343 14.4698 33.8343L7.32885 37.779Z" fill="#CFB66C"/>
<path fill-rule="evenodd" clip-rule="evenodd" d="M7.3291 37.7797C7.90103 37.4276 8.48419 37.07 9.06736 36.7069L9.93776 36.1785C10.2348 36.0026 10.5209 35.8376 10.8238 35.6617C11.1208 35.4855 11.4069 35.3096 11.7094 35.1446C11.8534 35.0557 12.0042 34.9784 12.1605 34.9135L12.6226 34.6825C13.2333 34.3855 13.844 34.0827 14.4878 33.8241C13.9046 34.1929 13.3048 34.5066 12.7053 34.8309C12.4082 34.9959 12.1054 35.1446 11.8084 35.3096C11.5114 35.4746 11.2252 35.6508 10.9224 35.8104C10.6254 35.9863 10.3392 36.1513 10.0368 36.3109L9.1399 36.8005L7.32983 37.7797H7.3291ZM14.4424 34.2695C14.4424 34.2695 12.3354 35.8869 11.6532 36.4041C10.971 36.9213 8.96291 38.3737 8.96291 38.3737L14.4424 34.2695Z" fill="#CFB66C"/>
<path fill-rule="evenodd" clip-rule="evenodd" d="M26.5352 47.3139L25.457 45.2728L26.0841 42.72L30.5568 40.9926L28.6532 37.0867L29.594 33.142L31.3602 29.6096L36.8179 28.7515L40.8283 24.9279L49.4881 25.5825L51.1879 34.8418L47.9144 46.4997L46.0496 52.5352L38.4902 52.8213L34.9803 50.3897L30.8706 48.6728L26.5352 47.3139Z" fill="#E2CC85"/>
<path fill-rule="evenodd" clip-rule="evenodd" d="M39.795 47.2478C39.795 47.2478 38.7494 47.7265 36.9662 47.6163C36.4501 46.9232 32.8358 46.5986 32.8358 46.5986C32.8358 46.5986 32.3846 46.4612 31.5868 46.7912C30.7838 47.1176 30.0244 47.0774 29.3147 47.2533C28.6049 47.4291 27.9003 46.5051 27.3563 46.3125C26.8123 46.109 26.0909 45.6194 26.0909 45.6194L24.5677 45.4708L21.509 44.1778L16.6496 39.3366L15.3292 41.4038L14.9219 43.9621L16.391 46.9936L20.3466 50.597L28.0598 52.5554L32.6316 51.2085L38.3588 48.7877L39.795 47.2475V47.2478Z" fill="#F1D789"/>
<path fill-rule="evenodd" clip-rule="evenodd" d="M12.3903 30.138L13.3695 27.1728L14.5362 25.2579L18.2934 24.9442L17.1656 28.2343L14.0245 33.8241L15.3283 38.814L13.0177 39.9691L12.3076 38.88L11.7357 36.3824L11.6973 33.5764L12.3903 30.138Z" fill="#F4ECB4"/>
<path fill-rule="evenodd" clip-rule="evenodd" d="M16.6052 47.0444L15.8846 46.0376C15.8846 46.0376 15.692 45.5589 15.8022 45.1407C15.911 44.7171 15.8954 44.6896 15.8407 44.53C15.7859 44.3704 15.3235 43.8203 15.3511 43.347C15.3783 42.8683 15.3126 42.7087 15.6644 42.3294C16.0329 41.9609 15.923 41.3226 15.923 41.3226L16.4017 41.6196L16.5105 41.4546C16.5105 41.4546 16.6864 41.592 16.6864 41.8067C16.7249 41.5097 16.5653 40.1341 16.9283 39.8208C17.2913 39.5074 17.9351 41.2896 17.9351 41.2896L17.539 38.7038L16.521 36.0523L14.711 33.6315L14.6022 30.963V30.732C14.6022 30.732 13.7713 32.0086 13.5403 33.0168C13.3753 33.7099 13.7713 34.5516 13.689 35.5475C13.6226 36.5379 13.5403 36.4607 13.7822 36.8531C14.0241 37.2455 14.6131 38.0524 14.382 38.6356C14.1786 39.1364 13.4852 38.7843 13.4852 38.7843C13.4852 38.7843 13.3477 39.1912 13.1606 39.3399C13.0946 39.098 13.0231 38.9439 12.8911 38.7959C12.8799 38.8895 12.8527 39.016 12.8527 39.016C12.8527 39.016 12.7315 38.6363 12.6104 38.1576C12.4458 37.5197 12.2695 36.6779 12.1099 36.2268C12.0439 36.4853 11.8789 37.272 11.8789 37.272L11.9725 38.4825L12.4236 40.1439L12.8588 41.2319L13.2824 42.5633L13.6505 43.4576L13.9476 44.1398L14.2061 45.6749L15.4548 46.9951L16.1207 47.2924L16.6045 47.0447L16.6052 47.0444Z" fill="#F3E19D"/>
<path fill-rule="evenodd" clip-rule="evenodd" d="M13.0457 27.7172C13.0457 27.7172 12.1488 29.2404 11.8906 30.7759C11.6324 32.3114 11.401 33.934 11.5642 36.0244C11.7292 38.1319 12.043 39.4244 12.2961 40.3489C12.7313 41.884 13.8585 44.0187 13.8585 44.0187L13.8969 43.936C13.7074 43.5769 13.5562 43.1988 13.4457 42.8081C13.2971 42.2249 13.2419 41.5319 13.1045 41.2182C12.9833 40.9048 12.7799 40.635 12.6809 40.2499C12.5873 39.8814 12.5721 39.2982 12.2848 38.8637C12.1637 38.6875 12.015 38.2254 11.9711 37.7634C11.916 37.07 11.9987 36.2942 11.9327 35.6563C11.8116 34.5944 11.7292 33.8738 11.8391 33.3178C11.949 32.7619 12.5217 31.1836 12.8738 29.9291C13.1048 29.1258 12.967 28.449 13.3906 27.7502C13.8142 27.0571 14.0732 26.4464 14.1664 26.0228C14.2752 25.6377 13.0443 27.7172 13.0443 27.7172H13.0457Z" fill="#F2E8B0"/>
<path fill-rule="evenodd" clip-rule="evenodd" d="M17.299 27.1064C17.299 27.1064 16.8369 27.2443 16.6168 27.4862C16.3966 27.7172 16.3031 27.9098 16.0061 28.3003C15.709 28.6909 15.6923 29.0101 15.4501 29.4997C15.2082 29.9784 14.6743 30.699 14.6083 30.9576C14.5423 31.2162 14.4324 32.4264 14.295 32.9987C14.1739 33.571 14.4324 34.2753 14.4324 34.2753L14.7458 34.2089C14.7458 34.2089 14.7458 34.6162 15.0595 34.8914C15.3728 35.1609 15.428 33.9779 15.428 33.9779L16.5997 30.0223L18.3656 28.8229L18.5581 27.8546L17.2982 27.1064H17.299Z" fill="#F5EEC0"/>
<path fill-rule="evenodd" clip-rule="evenodd" d="M18.1563 28.9002C18.1563 28.9002 17.3255 28.9549 16.9186 29.2523C16.7535 29.3731 16.6875 29.4721 16.5116 29.6208C16.1871 29.8902 15.8567 30.1379 15.6975 30.4912C15.5212 30.843 15.3286 31.3768 15.1966 32.3836C15.1415 32.8072 15.1415 33.1978 15.1031 33.539C15.0479 34.0011 14.9656 34.3695 15.0095 34.627C15.0646 35.1551 15.6093 35.4303 15.6623 36.0298L16.7902 35.4579L17.8521 31.2709L20.1079 29.8565L18.8313 28.4261L18.1549 28.8976L18.1563 28.9002Z" fill="#E6DB9D"/>
<path fill-rule="evenodd" clip-rule="evenodd" d="M12.2064 57.0942C12.2111 57.0529 12.2158 57.0115 12.2206 56.9691C12.3852 55.5547 12.4131 54.4826 12.5339 53.8113C12.7098 52.8597 12.8309 52.5057 12.8034 52.1496C12.7649 51.5777 12.721 51.1595 12.7762 50.7193C12.8585 50.1361 13.4308 49.443 13.4145 48.9643C13.4032 48.5846 13.2106 48.3373 13.0456 48.1062C12.8806 47.8752 12.7486 47.6826 12.7486 47.6826C12.7486 47.6826 13.8765 46.9069 13.8656 43.7818C13.8886 43.7883 13.9108 43.7975 13.9316 43.8094L14.4872 45.3881L14.8669 45.8501L16.3249 48.5679L18.2009 50.3892L20.9735 52.2541L22.7121 54.1461L22.888 59.1911L20.6159 62.14L20.2438 62.8138C17.2876 61.3297 14.5768 59.4006 12.2061 57.0938L12.2064 57.0942Z" fill="#E5CB7A"/>
<path fill-rule="evenodd" clip-rule="evenodd" d="M19.1465 61.9206C19.1465 61.9206 19.1849 61.2935 19.7021 60.8863C19.7848 61.0237 19.8395 61.1561 19.8232 61.2547C19.9168 61.0901 20.5714 60.0336 22.0514 59.7584C23.5315 59.4889 23.8891 58.4107 23.8891 58.4107L27.0301 55.5554L30.6227 52.249L34.991 50.7138L37.0325 50.213C37.0325 50.213 37.0709 50.3617 36.994 50.6917C37.3734 50.6645 38.2151 50.4719 39.0899 50.1637C39.442 50.0262 39.7724 49.9711 39.9483 50.1528C40.2069 50.3947 40.2453 50.967 40.2617 51.3079C40.6853 51.2143 41.1749 50.8074 41.5673 50.8458C42.1947 50.9119 42.7503 51.6492 43.3886 51.6492C44.2303 51.6492 44.6097 51.132 45.1986 50.7247C45.5508 50.4828 46.0567 50.1807 46.3429 49.9765C47.025 49.4757 54.2432 47.2696 54.2432 47.2696L56.7739 47.4346L57.1812 50.1524L56.9636 57.2571C56.9367 57.2828 56.9099 57.3097 56.8827 57.3354L45.376 63.3452L29.4259 65.7903C25.853 65.2065 22.4051 64.0205 19.2292 62.2829L19.1476 61.9202L19.1465 61.9206Z" fill="#D8C173"/>
<path fill-rule="evenodd" clip-rule="evenodd" d="M13.1729 57.998C13.3995 57.524 13.6033 57.1276 13.6392 56.9858C13.6675 57.2716 13.7194 57.8987 13.8238 58.5653C13.6045 58.3788 13.3876 58.1896 13.1729 57.9977V57.998Z" fill="#F1D789"/>
<path fill-rule="evenodd" clip-rule="evenodd" d="M24.8248 64.6842L26.8877 64.1104L27.0635 64.1656C27.0635 64.1656 27.1571 64.2207 27.1571 64.4074C27.4157 64.2591 27.6358 64.2863 27.7954 64.1877C27.8777 64.3636 27.9601 64.9467 28.3235 65.0182C28.7028 65.1009 29.1101 64.8532 29.5228 64.5398C29.9297 64.2152 30.3932 63.808 30.7439 63.6429C30.8726 63.8795 30.9865 64.1238 31.0852 64.3744C31.5472 64.006 32.3505 62.5096 33.4947 62.5368C33.8254 61.7553 34.3779 61.0878 35.0839 60.6169C36.1458 59.8962 36.8113 59.8411 37.6422 59.9071C37.9722 59.4784 38.3788 59.1147 38.8415 58.8343C38.979 58.8895 39.3587 59.1205 39.832 58.9004C40.3107 58.6806 40.8496 57.8276 41.5593 57.7177C41.9418 57.6651 42.3307 57.7467 42.6597 57.9487C42.6597 57.9487 44.7269 55.8964 46.1532 55.2142C46.0981 55.0492 45.9882 54.4276 47.6605 53.052C47.754 53.1347 47.688 53.3657 47.754 53.3784C47.7812 53.3784 48.1892 53.2025 48.7057 52.8061C49.344 52.3277 50.1085 51.8269 50.5705 51.6895C51.4409 51.4309 52.3643 51.9589 52.3643 51.9589C52.4428 51.9038 52.5303 51.8629 52.6228 51.8378C52.8426 51.7993 53.0022 51.7718 53.1233 51.729C53.1124 52.0151 53.272 52.5047 53.1233 52.9283C53.2956 53.0252 53.478 53.1027 53.6673 53.1593C53.5741 53.3628 53.3703 53.88 53.0294 54.1277C53.3152 54.2651 53.3536 54.4247 53.7609 54.5629C53.5959 54.7939 53.3257 55.1903 53.2053 55.4333C53.0842 55.6918 52.6493 56.7646 52.4567 57.1715C52.2533 57.5788 51.9784 58.327 51.846 58.4771C51.7136 58.6273 51.2353 59.2637 50.8668 59.5771C51.1932 59.456 52.5286 59.049 53.095 58.8949C52.9264 59.1423 52.0716 60.4105 51.2498 61.6301C47.315 63.9885 42.9228 65.4812 38.3658 66.0088C33.8089 66.5363 29.1918 66.0866 24.8223 64.6896L24.8248 64.6842Z" fill="#E0CD81"/>
<path fill-rule="evenodd" clip-rule="evenodd" d="M18.2931 28.7515C18.2931 28.7515 17.8148 28.7515 17.7212 28.8175C17.6276 28.8835 18.1999 29.0213 18.3758 29.0873C18.5517 29.1533 18.9314 29.4558 19.0304 29.698C19.124 29.9291 22.4689 31.2767 22.4689 31.2767L24.8345 31.1556L25.6502 30.0288L24.0987 28.6699L25.1867 25.4625L23.7455 25.6935L20.2795 27.7607L18.5408 28.4265L18.2931 28.7515Z" fill="#DFC57C"/>
<path fill-rule="evenodd" clip-rule="evenodd" d="M23.4877 29.8134C23.5219 29.8687 23.5701 29.9141 23.6274 29.945C23.6847 29.9759 23.7491 29.9911 23.8141 29.9893C24.3037 29.9893 24.7545 30.1104 24.9417 30.3577C25.2554 30.7541 26.1247 32.0195 26.1247 32.0195L28.2042 32.7676L28.3384 30.3189L26.0663 28.7402L23.4805 29.6919V29.813H23.4863L23.4877 29.8134Z" fill="#E5CC7C"/>
<path fill-rule="evenodd" clip-rule="evenodd" d="M23.0801 30.7211C23.0801 30.7211 23.4594 30.7487 23.9381 30.5724C24.4168 30.3962 25.2035 30.0168 25.5447 30.1655C26.0231 30.369 25.9241 31.0073 26.4416 31.5799C26.755 31.9321 27.3272 31.9212 27.6518 32.3009C27.9764 32.6806 29.0931 32.5044 29.0931 32.5044L29.5167 34.7892L27.8168 36.9681L27.2609 39.6747H24.9623L22.8625 38.8416L21.8281 36.3392L22.3453 33.8085L23.0801 30.7211Z" fill="#D2C281"/>
<path fill-rule="evenodd" clip-rule="evenodd" d="M27.526 30.831C27.583 30.8486 27.6423 30.8579 27.7019 30.8586C27.6359 30.9137 27.4981 31.0345 27.5532 31.3482C27.6083 31.6619 27.7842 32.0579 27.6359 32.2998C27.7543 32.4293 27.8426 32.5834 27.8945 32.751C27.9881 33.0208 28.0156 33.2682 28.626 33.307C28.5379 33.3612 28.4567 33.4259 28.3841 33.4995C28.3841 33.4995 28.8077 33.868 29.0224 34.2089C29.2422 34.1995 29.8253 34.0182 29.8253 34.0182L29.9465 34.1009L30.205 33.9921C30.205 33.9921 29.9631 33.8985 30.139 33.3099C30.3041 32.7927 30.4527 32.8203 30.4654 32.7818C30.4781 32.7434 30.5866 32.1987 30.5866 31.9785C30.6689 31.6927 30.7349 30.8234 30.7349 30.8234L30.559 28.9035L29.5689 28.3036L28.7638 27.5264L28.0044 28.9568L27.5043 29.4555L27.4658 30.6932L27.526 30.831Z" fill="#E2C270"/>
<path fill-rule="evenodd" clip-rule="evenodd" d="M29.9082 29.2248C29.9082 29.2248 30.0841 29.7253 30.1505 30.1104C30.1739 30.0355 30.1868 29.9578 30.1889 29.8794C30.1889 29.8794 30.3264 30.6388 30.3536 30.9525C30.4087 30.9413 30.4624 30.925 30.4747 30.9797C30.487 31.0345 30.6125 31.6456 30.5835 31.9865C30.8126 31.6085 31.1296 31.2915 31.5076 31.0624C31.7277 30.9246 31.9863 30.7763 32.2561 30.765C32.6797 30.7541 32.9876 31.0348 33.4939 31.0348C34.715 31.0348 35.8211 30.138 36.6353 29.8631C37.2348 29.6592 37.752 29.5109 38.115 29.1805C38.2912 29.0322 38.6049 28.7022 38.8907 28.2122C39.2704 27.5594 39.6665 26.9911 40.0629 26.9197C39.8835 26.9526 39.7011 26.9655 39.5189 26.9581C39.5189 26.9581 39.64 26.837 39.8453 26.672C40.0505 26.5069 40.2964 26.3035 40.6482 26.3035C41.2756 26.3035 41.589 26.3967 41.9411 26.3967C42.2933 26.3858 42.4967 26.3035 42.4967 26.3035C42.4967 26.3035 42.8656 26.5621 43.6961 26.5621C44.5269 26.573 45.0825 26.6444 45.5174 26.6832C45.9522 26.722 47.4098 26.5621 47.8279 26.5744C48.1005 26.5849 48.3682 26.6504 48.6149 26.767L47.2669 22.8502L42.4246 18.6179L39.5417 20.6589L35.107 25.0933L30.816 26.6832L29.9191 27.69V29.2248H29.9082Z" fill="#CCB360"/>
<path fill-rule="evenodd" clip-rule="evenodd" d="M39.5359 26.9799C39.5359 26.9799 39.657 26.8591 39.8601 26.6941C40.0632 26.5291 40.3116 26.3252 40.6634 26.3252C41.2904 26.3252 41.6041 26.4188 41.9563 26.4188C42.3084 26.4079 42.5119 26.3252 42.5119 26.3252C42.5119 26.3252 42.8811 26.5835 43.7112 26.5835C44.5421 26.5943 45.0977 26.6658 45.5325 26.7042C45.9674 26.7427 47.4249 26.5835 47.8431 26.5954C48.1156 26.6057 48.3833 26.6712 48.6297 26.788L48.019 25.0218L47.3096 23.6741L45.2848 21.4568C45.2848 21.4568 42.855 20.0264 42.8365 20.0156C42.8256 20.0047 41.9947 19.7845 41.9947 19.7845L39.7941 21.1159L37.7972 26.2821L37.7588 27.3701L39.0513 27.9808C39.3759 27.4368 39.7339 27.0016 40.0693 26.9465C39.7665 26.9795 39.5355 26.9795 39.5355 26.9795L39.5359 26.9799Z" fill="#D5B457"/>
<path fill-rule="evenodd" clip-rule="evenodd" d="M39.5088 27.3487C39.3162 27.3596 39.157 27.3212 39.1128 27.1837C38.9478 26.7217 38.8157 26.6557 38.6776 26.6557C38.5394 26.6557 38.353 26.9527 38.2424 26.9799C38.1318 27.0071 38.0005 26.639 38.0005 26.639L37.8793 26.5839C37.8793 26.5839 37.1696 27.0459 36.6691 27.5906C36.1686 28.1354 35.3487 29.0598 34.9802 29.2244C34.6117 29.3891 33.346 29.4446 32.913 29.5381C32.48 29.6317 31.9998 29.9454 31.9338 30.0169C31.8678 30.0883 32.1267 30.1652 32.1652 30.2366C32.2036 30.3026 31.7412 30.2751 31.7028 30.3454C31.6756 30.4006 31.8116 30.7139 31.879 30.8735C31.9971 30.8148 32.1266 30.7828 32.2584 30.7799C32.682 30.769 32.9902 31.0497 33.4962 31.0497C34.7176 31.0497 35.8234 30.1529 36.6376 29.8776C37.2374 29.6741 37.7546 29.5255 38.1176 29.1954C38.2935 29.0471 38.6072 28.7167 38.8934 28.2271C39.1023 27.8916 39.3061 27.5779 39.5099 27.3469L39.5088 27.3487Z" fill="#D2B257"/>
<path fill-rule="evenodd" clip-rule="evenodd" d="M21.992 54.5763C21.992 54.5763 21.8832 54.169 20.875 53.1184C20.5888 52.8213 20.4129 52.5744 20.2204 52.3977C19.7416 51.9462 19.4609 51.8255 19.12 51.5669C18.3718 51.0113 17.5577 51.0113 16.9306 50.3291C16.3036 49.6469 15.5728 48.3435 15.0651 47.0114C14.5646 45.6801 14.4268 45.2565 14.4268 45.218C14.4268 45.1796 14.5646 44.921 14.7405 44.9595C14.9164 44.9979 14.9164 45.3388 14.9606 45.4215C15.0482 45.5564 15.1476 45.6834 15.2576 45.8008C15.5162 46.0982 15.8847 46.4536 16.0718 46.9839C16.0334 46.5327 15.8792 46.0322 15.8792 46.0322C15.8792 46.0322 16.8476 46.643 17.6726 47.2809C18.5035 47.9192 18.8444 48.1393 19.087 48.5462C19.3296 48.9531 19.9012 50.0263 20.175 50.34C20.4488 50.6537 24.2006 51.8363 24.2006 51.8363L25.9853 53.167L26.8713 55.109L26.1779 56.197L24.8465 56.4832L22.6843 55.5149L21.992 54.5759V54.5763Z" fill="#D2B159"/>
<path fill-rule="evenodd" clip-rule="evenodd" d="M17.1885 47.8862C17.1885 47.8862 17.6396 48.6068 18.74 49.289C19.7304 49.8888 21.2982 50.4335 22.6959 50.7581C23.4989 50.9507 24.3022 51.099 25.0228 51.1103C26.9649 51.1375 28.3017 50.5822 29.958 50.4005C30.8548 50.307 31.9552 50.2355 33.0994 49.9653C34.5682 49.6132 35.4375 49.2168 36.6205 48.6597C37.4786 48.2637 38.2656 47.9667 38.9035 47.587C39.8004 47.0589 40.455 46.4703 41.2144 46.2944C41.1209 46.553 41.0218 47.0151 40.2737 47.4938C40.6697 47.4825 41.2144 47.4553 41.2144 47.4553C41.2144 47.4553 40.6864 47.7687 39.7565 48.473C39.1842 48.9082 38.4251 49.6447 37.6494 50.1343C37.1486 50.4481 36.6038 50.6784 36.2462 50.8662C35.3758 51.3449 35.0248 51.5868 34.4529 52.1718C34.6563 52.1609 34.673 52.1718 34.673 52.1718C34.673 52.1718 33.952 52.2654 33.4352 52.5403C33.3264 52.5403 33.1378 52.5018 32.8078 52.5954C32.5492 52.6777 32.208 52.8652 31.8562 52.9639C31.3553 53.1126 31.1907 53.0466 31.1907 53.0466L31.273 53.2116C31.273 53.2116 30.6202 53.2003 30.4026 53.2225C30.441 53.2333 30.4302 53.25 30.4302 53.25C30.3919 53.2564 30.3551 53.2694 30.3214 53.2885C30.2167 53.3563 30.1015 53.4064 29.9805 53.4368C29.9145 53.4477 29.8593 53.4477 29.7766 53.4644C29.8042 53.5304 30.0189 53.8996 30.1179 54.1172C30.0356 54.1723 28.7974 55.1076 28.7974 55.1076C28.8358 55.168 28.8672 55.2326 28.891 55.3002C28.9294 55.4209 28.9461 55.5972 28.9846 55.6795C29.0778 55.8445 29.1329 55.8721 29.1329 55.8721C29.1329 55.8721 28.9846 55.8997 28.7256 55.9657C28.5059 56.0208 28.236 56.114 27.8552 56.1691C27.7384 56.1843 27.6209 56.1935 27.5031 56.1967C27.5582 56.3178 27.8001 56.7799 27.3544 57.3133C26.9087 57.8468 26.7712 57.9244 26.6338 58.2653C26.5646 58.213 26.4909 58.1669 26.4136 58.1275C26.2653 58.0615 26.0615 57.9629 25.99 57.8305C25.9484 58.0069 25.8932 58.1798 25.825 58.3477C25.6876 58.7161 25.4841 59.0795 25.4457 59.3544C25.297 59.1894 25.0221 58.8648 24.6424 58.9308C24.2627 58.9968 23.9602 59.514 23.8942 59.6627C23.8942 59.5691 23.8282 59.4977 23.8119 59.6076C23.8006 59.7287 23.5917 60.9937 22.4254 62.0171C22.4145 61.7585 22.4145 61.1863 22.3869 60.9995C22.2781 61.1083 22.145 61.2689 21.3526 61.6102C20.5769 61.9511 20.6998 62.2924 20.6998 62.2924C20.6998 62.2924 20.6338 61.7484 21.052 61.1754C21.4756 60.6034 21.7341 60.3336 21.7341 60.2897C21.7273 60.245 21.7082 60.2031 21.679 60.1686C21.6239 60.1135 21.514 60.0475 21.514 60.0036C21.58 59.9764 22.2346 59.6627 22.1962 59.0132C22.1577 58.4303 21.9104 58.1275 21.7341 57.9132C21.7069 57.8856 21.9931 57.6822 21.9543 57.6162C21.9267 57.5777 21.5749 57.3188 21.5307 57.181C21.5411 57.0987 21.5595 57.0177 21.5858 56.9391C21.6243 56.8179 21.6518 56.7352 21.6409 56.6529C21.6134 56.5155 21.4647 56.1358 21.4208 56.0973C21.4592 56.1082 21.7341 56.0973 21.7341 56.0973C21.7341 56.0973 21.5144 55.7452 21.4756 55.5802C21.4368 55.4151 21.3544 54.9803 21.3105 54.898C21.4041 54.9089 21.6351 54.9252 21.6351 54.898C21.6464 54.8153 21.4317 54.6778 21.5263 54.5716C21.5923 54.5825 21.7189 54.6376 21.8397 54.7917C21.7737 54.6155 21.6638 54.2746 21.4324 54.1371C21.5412 54.0987 21.9111 53.9993 22.2357 54.1919C22.5603 54.3844 22.6709 54.6539 22.6709 54.6539C22.6709 54.6539 22.8635 54.8026 23.1609 55.0227C23.5018 55.2922 23.9363 55.6755 24.6297 55.9468C24.7784 56.0295 25.1577 56.0295 25.433 55.9744C25.5528 55.9458 25.6677 55.8995 25.7739 55.8369C25.8122 55.8143 25.8528 55.7959 25.895 55.7818C25.8359 55.6631 25.7679 55.549 25.6916 55.4405C25.7851 55.4405 25.895 55.4518 25.895 55.4518C25.895 55.4518 25.961 55.3031 25.664 55.0166C25.73 54.9506 25.8127 54.9078 25.8127 54.7964C25.7191 54.7856 25.5541 54.6481 25.5157 54.593C25.5704 54.5545 25.6531 54.428 25.7467 54.3895C25.664 54.3235 25.4605 54.0482 25.367 54.021C25.4564 53.9879 25.5428 53.9474 25.6256 53.8999C25.6256 53.8999 25.1635 53.7788 25.0148 53.6798C24.8661 53.571 24.6464 53.3828 24.5143 53.3276C24.3765 53.2725 24.1346 53.2453 24.0356 53.1351C24.1288 53.1626 24.2775 53.1351 24.3878 53.1351C24.4701 53.1351 24.5089 53.1459 24.5361 53.1459C24.5252 53.1075 24.5252 53.0248 24.7399 52.9976C24.8432 52.982 24.9434 52.9505 25.0369 52.904C25.0369 52.904 24.8331 52.8932 24.6017 52.673C24.3704 52.4529 24.1782 52.277 24.0461 52.2494C23.9087 52.2219 23.6501 52.343 23.4905 52.3317C23.2704 52.3045 23.1768 52.1943 23.1768 52.1943C23.1768 52.1943 22.4453 52.2603 20.8224 51.2702C19.4192 50.4118 18.8085 49.6527 18.8085 49.6527C18.6772 49.6051 18.5503 49.5461 18.4292 49.4765C17.9011 49.2016 17.1693 48.6293 17.1914 47.8807L17.1885 47.8862Z" fill="#C2A44D"/>
<path fill-rule="evenodd" clip-rule="evenodd" d="M37.4283 14.8653C37.5556 14.9067 37.6687 14.9829 37.7547 15.0855C38.0133 15.3825 38.1783 15.9435 37.5897 16.5434C37.8208 16.6257 37.9161 16.6522 38.1178 16.6257C37.9143 16.868 37.4523 17.3851 37.4247 17.8363C37.3972 18.2047 37.6282 18.315 37.6282 18.315C37.6282 18.315 37.276 18.7219 37.2597 19.403C37.426 19.2155 37.608 19.0424 37.8037 18.8858C38.211 18.5612 38.772 18.1928 39.1517 17.9618C39.1466 18.0586 39.1596 18.1555 39.1902 18.2475C39.1902 18.2475 39.8996 17.6644 40.4958 17.9233C40.7652 18.0444 40.6441 18.4238 40.6441 18.4238C40.6441 18.4238 41.0129 18.2863 41.2715 18.5449C41.5301 18.8035 41.8957 19.4705 42.0832 19.729C42.1655 19.8502 42.3802 20.0812 42.6 20.4388C42.9002 20.9394 43.1509 21.4681 43.3485 22.0175C43.3594 21.7313 43.4308 21.286 44.2454 21.5663C45.0596 21.8524 45.9837 22.4523 46.7594 23.6335C47.5351 24.8147 47.7274 26.1482 48.1179 26.656C48.514 27.1456 48.9213 27.9598 48.9488 28.301C48.9764 28.6423 48.8277 29.7423 49.6419 32.7187C49.8729 31.7946 50.225 29.7423 50.225 29.7423L50.4176 27.9322L50.6378 22.3315L44.7894 17.4729L40.2176 14.1552L37.2412 14.4414L37.428 14.865L37.4283 14.8653Z" fill="#CAA13E"/>
<path fill-rule="evenodd" clip-rule="evenodd" d="M48.2938 23.2001C48.2938 23.2001 48.2111 22.6561 46.8359 21.7313C45.4603 20.8182 44.3875 20.8182 43.3974 20.0424C42.638 19.4317 41.8459 18.0285 41.3302 17.5665C40.8294 17.1099 40.7471 15.7894 40.7471 15.7894L42.436 14.375L44.9478 10.7444L47.0713 8.40625L48.0889 9.82065L49.5033 11.482L50.2899 14.816L50.5761 19.6961L48.2913 23.2005L48.2938 23.2001Z" fill="#B59544"/>
<path fill-rule="evenodd" clip-rule="evenodd" d="M49.995 29.0496C50.0366 28.3095 49.9452 27.568 49.7252 26.8602C49.3625 25.7323 48.5701 23.7296 48.202 22.9797C48.0533 22.1488 48.1635 22.0828 48.3231 21.9892C48.4827 21.8956 49.0825 21.554 49.4111 20.3554C49.7397 19.1568 50.7591 19.1176 50.7591 19.1176L51.3862 18.6556L52.3382 21.0376L53.1687 23.1889L53.4273 24.834L53.6199 26.2368L53.1687 29.2023L50.9408 31.2158L49.9946 29.0496H49.995Z" fill="#C89D3A"/>
<path fill-rule="evenodd" clip-rule="evenodd" d="M18.9053 62.1027V62.0418C18.9516 62.0128 18.9924 61.976 19.026 61.933C19.0645 61.8779 19.0924 61.8118 19.1196 61.7955C19.1747 61.768 19.4333 61.6867 19.5708 61.7128C19.7082 61.739 20.0716 61.8887 20.2642 61.8779C20.6602 61.867 21.1223 61.5641 21.8541 61.702C22.9544 61.9054 23.213 62.6536 23.8513 63.0772C24.2865 63.3746 24.737 63.2422 24.803 63.2422H24.9513C24.9789 63.2422 25.1823 63.0112 25.2926 63.0224C25.5127 63.0333 25.5345 63.215 25.6719 63.2259C25.9965 63.2643 26.6239 63.0609 26.9376 63.1436C27.0306 63.1727 27.1152 63.2239 27.1842 63.2928C27.2531 63.3617 27.3044 63.4462 27.3336 63.5392C27.3997 63.7427 27.3445 64.0013 27.185 64.15C26.844 64.4633 26.5195 64.7607 26.4535 65.0204C26.5374 65.0844 26.618 65.1526 26.695 65.2249C23.9729 64.5314 21.3538 63.4827 18.9053 62.106V62.1027Z" fill="#CEB052"/>
<path fill-rule="evenodd" clip-rule="evenodd" d="M48.2012 51.1103C48.2012 51.1103 49.0592 49.9661 49.3566 49.3992C49.6537 48.815 48.4159 41.4166 48.4159 41.4166L50.9027 33.2689L50.8363 30.6171C50.8363 30.6171 50.9574 28.1687 51.2436 27.1068C51.5848 27.7176 52.6467 28.4549 52.8778 28.8454C52.9866 28.0969 53.3561 26.5182 53.3014 24.8347C53.5048 25.1481 53.9944 28.3007 53.9944 28.3007L54.484 30.4241L55.1223 32.6799L55.832 35.0623L56.2556 36.7073L56.4975 37.1034L56.7014 37.7964L56.8939 38.545L57.4495 40.2999L57.7759 41.7411L58.0345 44.3545C58.0908 44.5546 58.1313 44.7588 58.1556 44.9653C58.1665 45.2514 58.1172 45.4164 58.1172 45.4661C58.1172 45.5158 58.2108 46.0931 58.1723 46.528C58.1172 46.9632 58.1172 47.3037 57.7759 47.616C57.4347 47.9282 57.2203 49.7945 57.2203 49.7945L56.6096 49.3876C56.6096 49.3876 56.7307 48.8316 56.4446 48.3257C56.1584 47.8198 55.6028 47.715 55.2891 47.7977C54.9758 47.8637 54.3487 47.9623 54.1449 48.1386C53.9523 48.3145 53.4794 48.8592 53.0446 49.1069C52.5006 49.4333 51.6142 49.4591 51.1413 49.5689C50.6626 49.6777 50.1345 50.0041 49.5786 50.3831C49.1427 50.6654 48.6824 50.9081 48.2033 51.1085L48.2012 51.1103Z" fill="#CCA847"/>
<path fill-rule="evenodd" clip-rule="evenodd" d="M48.2012 63.1312C48.2012 63.1312 48.2374 63.1548 48.3074 63.1932C52.2161 61.3619 55.7183 58.7662 58.6072 55.5591C58.5756 54.4457 58.5346 53.3044 58.4897 52.8815C58.3965 51.9846 58.4625 51.0714 58.4349 50.5434C58.4073 50.0154 58.1103 47.864 57.9729 47.3084C57.8242 46.7528 57.5377 46.4775 57.4941 46.4775C57.4557 46.4888 57.2243 47.5231 57.2243 47.7831C57.2243 48.0432 57.1692 48.6691 57.1692 48.8287C57.1307 48.8175 57.1144 48.7199 57.1144 48.68C57.0593 48.8175 56.9933 49.0597 56.9657 49.0873C56.9382 49.1148 57.0042 48.8563 56.9657 48.8011C56.9273 48.746 56.8569 48.7736 56.8722 48.6361C56.8787 48.5546 56.8915 48.4737 56.9106 48.3942C56.9106 48.3942 56.7456 48.6361 56.6248 49.2523C56.5037 49.863 56.5037 49.8797 56.4598 49.9345C56.4214 50.0008 56.2012 50.2206 56.19 50.3033C56.1791 50.4516 56.3938 50.6003 56.4101 50.6827C56.421 50.8205 56.2176 51.4584 56.1515 51.7707C56.0855 52.0829 56.1131 52.6947 56.0427 53.0084C55.9876 53.2946 55.9339 53.4596 55.7457 53.5804C55.8832 53.6079 56.0152 53.6464 56.0152 53.6464C56.0152 53.6464 56.2078 54.4606 55.7182 55.154C55.5423 55.3959 55.4984 55.5061 55.3112 55.7263C54.9424 56.1332 54.6563 56.5967 54.6287 56.898C54.6097 56.8091 54.5968 56.7189 54.5903 56.6282C54.5903 56.6282 54.0183 57.2941 53.7761 57.6738C53.4627 58.1634 53.0279 58.1358 52.9057 58.2569C52.7835 58.3781 52.757 58.5979 52.7969 58.7741C52.6881 58.8013 52.4835 58.8401 52.3457 59.2637C52.2797 59.4835 52.1147 59.6989 51.8561 59.8469C51.5975 59.9948 51.2838 60.0395 51.1243 60.0779C51.2617 60.1163 51.3168 60.1163 51.3828 60.1602C51.3005 60.2977 50.9208 60.5124 50.4972 60.7876C50.0736 61.0462 49.8698 61.4256 49.7654 61.6733C49.6566 61.9043 49.4959 62.053 49.2373 62.0805C49.3461 62.1466 49.5071 62.3003 49.5895 62.35C49.4683 62.3776 49.2631 62.3776 48.8964 62.6913C48.5112 63.0104 48.3792 63.104 48.203 63.1316L48.2012 63.1312Z" fill="#C39D3C"/>
<path fill-rule="evenodd" clip-rule="evenodd" d="M40.5458 65.6808C40.7564 65.5331 40.9846 65.4122 41.225 65.3207C42.0831 64.9797 42.9909 64.9137 43.3484 64.8039C43.6897 64.6951 43.9592 64.5449 44.3828 64.4626C44.3715 64.5591 44.3621 64.6497 44.3519 64.7353C43.1031 65.1279 41.8314 65.4437 40.5439 65.6808H40.5458Z" fill="#D2BA6B"/>
<path fill-rule="evenodd" clip-rule="evenodd" d="M56.373 43.1109C56.373 43.1109 56.1971 44.0625 55.8834 44.6624C55.5697 45.2623 55.2306 46.0928 55.2306 46.0928C55.2327 45.9056 55.2548 45.7192 55.2966 45.5368C54.9006 45.7678 53.9377 46.3238 53.6646 46.5711C53.406 46.8021 52.9712 47.2094 52.8613 47.402C53.1199 46.6429 53.3894 45.9607 53.4336 45.647C53.0376 45.9332 51.1887 47.4571 50.2262 48.4639L47.2276 50.8901C46.8816 51.0768 46.5253 51.2436 46.1603 51.3899C45.6435 51.6096 45.0328 51.7968 44.5816 51.973C44.7028 51.6484 44.895 51.3619 45.1648 51.087C45.4509 50.8176 46.309 49.8877 46.441 49.455C46.5622 49.0039 46.5897 48.7344 46.4301 48.3547C46.2815 48.3932 45.9405 48.4098 45.7095 48.4758C45.4785 48.5418 45.2308 48.7892 45.2308 48.7892C45.2308 48.7892 45.4067 47.7824 45.7864 46.8308C45.5003 46.8417 45.0107 46.924 45.0107 46.924C45.0107 46.924 45.6928 45.7798 46.8603 44.9823C46.5027 45.0584 46.1529 45.1669 45.8151 45.3065C45.1329 45.5926 44.3847 46.0162 43.8291 46.2473C44.1424 45.8121 46.3431 42.6714 47.6527 39.7443C48.9583 36.823 49.4461 36.0748 49.7322 34.507C49.8806 33.7313 49.841 32.5849 49.8806 31.5582C49.919 30.5402 50.0456 29.627 49.9632 29.0162C50.3042 29.4398 51.5807 30.6337 51.6246 33.3022C51.6631 35.9704 50.4035 39.5742 49.0664 41.5159C49.3928 41.6095 50.2385 41.7197 51.1075 40.2103C51.9764 38.7009 51.9659 38.2795 52.2796 37.6521C52.318 37.9658 52.3068 38.0756 52.3068 38.0756C52.3068 38.0756 53.5725 36.5408 54.172 34.6096C54.2931 35.4405 54.6507 36.1724 54.0893 37.6963C53.5888 39.0715 52.9342 39.4074 52.9342 39.4074C52.9342 39.4074 53.2588 39.3522 53.7372 39.0661C53.8198 39.2695 53.8035 39.5013 53.941 39.5833C54.0784 39.6652 54.2656 39.8034 54.2931 39.9354C54.4415 39.7153 54.6725 39.4346 54.7443 39.2257C54.6892 39.6609 54.6507 41.5638 54.8531 42.5321C55.277 42.4937 55.7115 42.4661 56.0085 41.7012C55.8051 42.4498 55.8051 42.9006 55.9425 43.5389C56.1681 43.3851 56.3716 43.1098 56.3716 43.1098L56.373 43.1109Z" fill="#C0993A"/>
<path fill-rule="evenodd" clip-rule="evenodd" d="M42.0774 12.7858C42.0774 12.7858 41.6538 12.9617 40.9332 12.9617C40.3061 12.9617 40.482 12.7198 39.5028 12.7198C37.9956 12.7198 32.7304 13.5902 31.8059 13.5779C31.2061 13.567 33.8303 13.8364 33.8303 13.8364L40.5371 13.93L41.8848 13.8212L42.3856 12.8021L42.0774 12.7858Z" fill="#A88F33"/>
<path fill-rule="evenodd" clip-rule="evenodd" d="M24.6869 25.8962C24.6869 25.8962 23.8284 26.5508 23.4654 27.0516C23.1024 27.5525 22.9098 27.8821 22.4971 28.2894C22.594 28.2931 22.6907 28.2801 22.7832 28.251C22.7832 28.251 22.7832 28.3598 22.7172 28.3884C22.7742 28.382 22.832 28.3885 22.8862 28.4073C22.9404 28.4262 22.9897 28.4569 23.0306 28.4972C22.9094 28.5632 22.5794 28.8936 22.838 29.2842C23.0306 29.5812 23.4378 29.6084 23.4378 29.6084C23.4378 29.6084 23.3443 29.8783 23.7349 29.8507C24.5766 29.8123 25.5174 29.4434 25.9518 29.537C26.387 29.6458 26.6344 29.6857 26.9423 30.2195C27.2687 30.7476 27.553 30.8303 27.553 30.8303C27.553 30.8303 27.7456 30.3403 27.7017 29.6088C27.8596 29.2145 27.9471 28.7956 27.9603 28.371L27.6741 26.2639L26.4255 24.6849L24.808 25.5817L24.6869 25.8951V25.8962Z" fill="#E3C571"/>
<path fill-rule="evenodd" clip-rule="evenodd" d="M26.2217 25.5826C26.2217 25.5826 26.3428 25.8687 26.8491 25.8959C26.794 26.017 26.794 26.0337 26.8106 26.1269C26.8215 26.2205 26.8378 26.3579 26.8378 26.3579C26.8936 26.331 26.944 26.2941 26.9865 26.2491C27.0141 26.3703 26.959 26.5625 26.9865 26.7003C27.0035 26.7841 27.0312 26.8654 27.0689 26.9422C27.0769 26.9234 27.0861 26.9051 27.0964 26.8874C27.1073 26.8599 27.2052 27.1845 27.4761 27.4314C27.4759 27.3935 27.4853 27.356 27.5033 27.3226C27.5075 27.3916 27.5303 27.4582 27.5693 27.5152C27.5491 27.5055 27.5306 27.4925 27.5146 27.4768C27.5146 27.4768 27.5418 28.3472 27.6905 28.7972C27.7153 28.7682 27.7374 28.7368 27.7565 28.7037C27.7565 28.6765 27.7456 28.9459 27.718 29.1389C27.6796 29.3314 27.7072 29.6009 27.7072 29.6009C27.8064 29.5228 27.9154 29.4581 28.0314 29.4083C28.1964 29.342 28.4666 29.1385 28.6312 28.6873C28.7268 28.4318 28.8004 28.1687 28.8514 27.9007C28.9046 28.0031 28.9413 28.1133 28.9602 28.2271C28.9714 28.3646 29.23 28.2931 29.23 28.2931L29.2851 27.6933L29.6115 26.3344L29.9085 25.4926L31.3389 23.2648L33.9233 21.2744L36.1791 21.7916L38.0823 19.2058L34.8035 17.2361L31.7005 17.5607L28.8844 21.4612L26.629 24.999L26.2217 25.5822V25.5826Z" fill="#D8B65B"/>
<path fill-rule="evenodd" clip-rule="evenodd" d="M42.4739 19.9379C42.4739 19.9379 42.2813 19.9764 41.7257 20.2643C41.1701 20.5523 40.7849 20.6437 40.5702 21.0673C40.3555 21.4909 40.3392 21.8267 40.3392 21.8267C40.3392 21.8267 40.7189 21.6617 40.9391 21.6066C41.1701 21.5518 41.4287 21.5681 41.4011 21.6617C41.3746 21.7258 41.3379 21.7853 41.2923 21.8376C41.2923 21.8376 41.7275 21.8267 41.7159 22.0414C41.7043 22.2561 41.6336 22.4926 41.5512 22.597C41.4685 22.7058 41.1276 22.8668 41.0892 22.9934C40.9956 23.252 41.1276 23.2629 41.078 23.4718C41.0395 23.6756 40.8582 24.0716 40.2638 24.7647C39.653 25.4581 39.3934 25.9477 39.3934 25.9477C39.3934 25.9477 39.0963 25.3921 38.9422 24.9134C38.8334 24.9681 38.2492 25.2927 38.2492 25.2927L36.8957 20.578L36.9229 20.2643C36.9229 20.2643 37.044 20.116 37.0716 19.8407C36.8681 19.7747 36.8406 19.7196 36.5707 19.4614C36.3009 19.2032 36.0811 18.8891 35.6303 18.6744C35.5643 18.5533 35.4816 18.3886 35.1516 18.3222C34.8216 18.2559 34.6236 18.2015 34.6236 18.2015C34.6236 18.2015 34.7995 18.1351 34.8822 17.9977C34.6783 18.0252 34.5137 18.0912 34.068 18.0804C33.6168 18.0691 33.5671 18.0528 33.3198 18.0912C33.0725 18.1297 32.7758 18.2399 32.6652 17.8602C32.544 17.7666 32.2855 17.8493 32.0653 18.1736C31.8452 18.4978 31.7683 18.7567 31.3447 18.8833C31.3149 19.07 31.2495 19.2493 31.1521 19.4113C31.031 19.6152 30.8384 19.8186 30.5798 20.1211C30.1726 20.5998 30.2386 21.3864 29.5894 21.9863C28.9348 22.5858 29.6982 20.3245 29.6982 20.3245L30.7434 17.8221L33.7198 14.9117L38.3413 14.5984L38.7924 16.992L41.0482 17.7677L42.4731 19.9408L42.4739 19.9379Z" fill="#D3AE4D"/>
<path fill-rule="evenodd" clip-rule="evenodd" d="M43.2054 20.466L41.2634 17.6658L39.9044 16.6203C39.9044 16.6203 38.9361 14.8381 38.8701 14.783C38.815 14.7446 37.9018 14.6456 37.3186 14.6071L37.4274 14.8766C37.5547 14.9179 37.6678 14.9942 37.7538 15.0967C38.0124 15.3937 38.1774 15.9548 37.5888 16.5546C37.8198 16.637 37.9152 16.6634 38.1169 16.637C37.9134 16.8792 37.4514 17.3964 37.4238 17.8475C37.3962 18.216 37.6273 18.3259 37.6273 18.3259C37.6273 18.3259 37.2751 18.7332 37.2588 19.4139C37.4251 19.2264 37.6071 19.0533 37.8028 18.8967C38.2101 18.5703 38.7711 18.2033 39.1508 17.9723C39.1456 18.0692 39.1587 18.1663 39.1893 18.2584C39.1893 18.2584 39.8986 17.6753 40.4949 17.9339C40.7643 18.055 40.6432 18.4347 40.6432 18.4347C40.6432 18.4347 41.012 18.2973 41.2706 18.5558C41.5292 18.8144 41.8977 19.4799 42.0848 19.7389C42.1671 19.86 42.3818 20.091 42.6016 20.4482C42.9019 20.949 43.1526 21.4778 43.3501 22.0273C43.361 21.8071 43.4053 21.4992 43.7853 21.4992L43.2076 20.4649L43.2054 20.466Z" fill="#CAA13E"/>
<path fill-rule="evenodd" clip-rule="evenodd" d="M14.0914 28.4215C14.0914 28.4215 13.9539 28.0802 14.0914 27.4147C14.2288 26.7492 14.4435 26.4355 14.515 25.4563C14.5864 24.4771 15.2247 23.2556 15.2247 23.2556L16.9905 22.4527L18.2395 22.7936L18.608 24.4662L17.029 25.3366C17.029 25.3366 16.9466 25.7051 16.5009 26.0021C16.0552 26.2991 15.439 26.5302 15.2907 26.833C15.202 27.0184 15.1373 27.2144 15.0981 27.4162C15.0981 27.4162 14.647 27.3226 14.3775 27.6196C14.0914 27.9224 14.1022 28.1919 14.0914 28.4229V28.4215Z" fill="#F4EFC8"/>
<path fill-rule="evenodd" clip-rule="evenodd" d="M17.6553 27.9757C17.6553 27.9757 17.5066 28.0693 17.3968 28.3021C17.288 28.1263 17.0279 27.0807 17.017 26.1399C17.0062 25.1992 16.95 24.966 17.1676 24.6417C17.3852 24.3175 18.2385 23.9759 18.1174 23.392C17.9962 22.8364 17.49 22.6054 16.8684 22.7649C16.4332 22.8737 16.1093 23.7993 15.6581 24.2613C15.3169 24.6135 14.91 24.5583 14.8001 24.7509C14.6514 25.0095 14.7888 25.2681 14.7449 25.4331C14.7337 25.4882 14.5962 25.7852 14.3485 26.1428C13.8481 26.8634 13.0009 27.8814 12.8906 28.7946C12.9291 28.2775 12.9019 28.2666 13.0393 27.6943L12.9566 27.5569L13.5006 25.7744L13.8528 24.3056L14.6398 21.846L16.0259 19.3319L17.3739 17.8243L18.7767 17.9179L18.9417 20.025L19.745 23.981L21.434 26.0605L18.727 27.8822L17.6543 27.9757H17.6553Z" fill="#EBCC73"/>
<path fill-rule="evenodd" clip-rule="evenodd" d="M18.4978 28.7232C18.4978 28.7232 18.2668 28.7783 18.1841 28.7345C18.1014 28.6906 18.0194 28.6409 18.0466 28.5858C18.0738 28.5306 18.2225 28.4374 18.2225 28.3932C18.2256 28.3532 18.2129 28.3136 18.1873 28.2828C18.1616 28.252 18.125 28.2324 18.0851 28.2282C17.9585 28.2119 17.9201 28.2942 17.9201 28.2942C17.9201 28.2942 17.7989 28.201 17.7003 28.1854C17.7587 28.1782 17.8174 28.1745 17.8762 28.1741C17.7241 28.1053 17.5629 28.059 17.3975 28.0367C17.5349 27.9544 17.8047 27.7121 17.9806 27.7121C18.1565 27.7121 18.2668 27.6849 18.2392 27.5913C18.2116 27.4978 18.0742 27.3603 17.9259 27.3052C17.9806 27.2392 18.0194 27.1402 17.8874 26.87C17.7496 26.6005 17.8047 26.4188 17.849 26.3532C17.8874 26.2705 18.0249 26.1222 18.0909 26.0286C18.1569 25.935 18.212 25.8085 18.3219 25.7425C18.377 25.704 18.5529 25.6337 18.7292 25.5666C18.9217 25.5006 19.0813 25.4179 19.1912 25.5006C19.3123 25.5829 19.2572 25.6931 19.2572 25.6931C19.2572 25.6931 19.6369 25.5553 19.9778 25.7316C20.3191 25.8962 21.15 26.001 21.15 26.001L21.4477 26.6009L19.4781 28.2898L18.6639 28.6971L18.4989 28.7243L18.4978 28.7232Z" fill="#E5C66B"/>
<path fill-rule="evenodd" clip-rule="evenodd" d="M21.2325 25.9622C21.2325 25.9622 20.6217 26.3695 20.4843 26.5178C20.5666 26.5291 20.7041 26.5842 20.6489 26.6665C20.5829 26.7488 20.1869 27.035 19.9668 27.3048C19.7357 27.5743 19.5156 27.9155 19.4387 28.0805C19.3564 28.2289 18.729 28.6637 18.5146 28.7185C18.9658 28.7185 19.8736 28.1629 20.2145 28.1629C20.2036 28.3279 20.308 28.515 20.5006 28.5313C20.6932 28.5477 21.2488 28.6525 21.997 28.1904C22.7452 27.7393 22.4978 27.4034 22.8112 27.1837C23.411 26.7873 23.6529 26.4351 23.9829 26.2153C24.313 25.9956 24.4838 25.9455 24.4838 25.9455C24.4838 25.9455 24.4947 25.7805 24.5926 25.7972C24.6194 25.8003 24.6448 25.8106 24.6662 25.8271C24.6875 25.8436 24.704 25.8656 24.7137 25.8908C24.7137 25.8908 25.286 25.4835 26.0193 25.3736C26.0022 25.366 25.9885 25.3523 25.9809 25.3352C25.9809 25.3352 26.0356 25.3076 26.0469 25.28C26.0469 25.28 26.0853 25.2249 26.1129 25.2525C26.1404 25.28 26.1789 25.4835 26.234 25.5662C26.3551 25.511 26.5862 24.9939 26.5862 24.9939L27.1421 23.404V21.9515L26.7069 22.0342L23.4429 23.4203L21.462 25.4726L21.231 25.9622H21.2325Z" fill="#E6BD62"/>
<path fill-rule="evenodd" clip-rule="evenodd" d="M30.6294 18.8376C30.806 18.7948 30.9753 18.7261 31.1317 18.6338C31.0657 18.81 31.0657 19.0026 30.7796 19.4208C30.4934 19.8389 30.4826 19.8995 30.2515 20.334C30.0205 20.7851 29.993 21.4343 29.7728 21.7201C29.8715 21.6721 29.9773 21.6407 30.0862 21.6269C30.0862 21.6269 29.8664 21.8195 29.7728 22.0229C29.6793 22.2264 29.5142 22.65 29.1073 22.9089C28.7004 23.1679 28.1829 23.3325 27.6273 23.9432C27.0713 24.5427 26.4994 25.3021 26.2129 25.5752C26.3616 25.3167 26.565 24.7995 26.6202 24.4586C26.6753 24.1177 26.6089 23.71 26.7025 23.2592C26.7961 22.8084 26.7961 22.4835 27.2465 21.6965C27.6969 20.9095 28.468 18.1754 28.468 18.1754L30.1293 17.6473L30.6302 18.8358L30.6294 18.8376Z" fill="#B6933F"/>
<path fill-rule="evenodd" clip-rule="evenodd" d="M29.4296 17.8309C29.4296 17.8309 28.9291 18.5515 28.7916 19.1898C28.6542 19.8281 28.7804 19.7729 28.6981 20.0867C28.6488 20.2779 28.6488 20.4786 28.6981 20.6698C28.8714 20.3906 29.1087 20.1566 29.3904 19.9873C29.8637 19.7015 30.2488 19.4977 30.4784 19.2558C30.7094 18.9972 30.902 18.5736 31.4025 18.249C31.199 18.2215 30.9129 18.1279 30.8585 18.1402C31.0623 17.9092 31.6727 17.5571 32.2888 17.1335C32.8996 16.6983 32.8611 16.5227 33.8516 16.0883C33.527 16.1434 33.3728 16.0607 33.103 16.0883C33.2118 15.8572 33.5926 15.747 33.9734 15.3676C34.3542 14.9883 33.7315 14.4269 33.7315 14.4269L30.8302 16.1818L29.4274 17.8323L29.4296 17.8309Z" fill="#C49937"/>
<path fill-rule="evenodd" clip-rule="evenodd" d="M21.5566 16.5213L21.6226 15.9932L22.4535 14.6619L23.3228 12.3238V9.12724L23.2568 7.27873L23.3943 6.06815L23.4987 5.68336L23.609 5.53467L24.3183 5.90314L25.2979 7.23449L25.3915 9.80398L24.4395 13.8586L21.7217 16.8241L21.5566 16.5213Z" fill="#DFC068"/>
<path fill-rule="evenodd" clip-rule="evenodd" d="M23.7185 5.38601C23.7185 5.38601 23.2833 5.39725 23.1905 7.20732C23.0976 9.01739 23.0527 9.96903 22.9867 10.8659C22.9207 11.7628 22.7669 12.3071 22.6896 12.8355C22.6124 13.364 22.5685 14.0842 22.3212 14.5245C22.2124 14.7279 21.9799 15.3662 21.4352 15.845C20.8245 16.373 19.912 16.7418 19.7738 16.7694C19.5315 16.8242 18.3046 16.9453 17.8042 17.2205C17.6283 17.3141 17.3254 17.424 16.99 17.7377C16.3241 18.3372 15.4385 19.41 14.8002 20.7029C13.821 22.6341 12.8418 28.086 12.8418 28.086L13.0619 27.7176C13.0619 27.7176 13.0895 27.228 13.5791 26.3695C14.0578 25.5115 13.9204 24.5486 14.5859 22.9035C14.8444 22.2765 15.169 21.4623 15.5651 20.7689C16.1925 19.641 16.9515 18.6727 17.7164 18.1446C18.9651 17.2866 20.3407 17.0994 20.3407 17.0994L21.8207 16.1202C21.8207 16.1202 22.0793 15.6197 22.4205 15.0475C22.8989 14.2445 23.5085 13.3476 23.6416 12.0438C23.8455 10.1126 23.3555 8.8473 23.3831 7.70309C23.4106 6.55888 23.4215 5.71713 23.6529 5.51331C23.8843 5.30949 23.7189 5.38674 23.7189 5.38674L23.7185 5.38601Z" fill="#A88F33"/>
<path fill-rule="evenodd" clip-rule="evenodd" d="M23.7185 14.0235C23.7185 14.0235 24.3713 12.4169 24.6701 10.992C24.7253 10.7059 24.8351 10.4201 24.8627 10.1891C25.0002 8.84103 25.0386 8.28543 24.8627 7.54812C24.7253 7.00412 24.1972 6.5138 23.9219 6.13372C23.6525 5.73733 23.5259 5.58972 23.581 5.50631C23.6362 5.4229 23.8505 5.28654 24.0594 5.30286C24.2815 5.30932 24.4999 5.36088 24.7014 5.4544C24.9029 5.54792 25.0833 5.68144 25.2315 5.84686C25.6551 6.33646 25.9906 7.99819 25.9906 7.99819L26.3435 10.1909L27.2403 12.9526L23.7192 14.0257L23.7185 14.0235Z" fill="#C99E3D"/>
<path fill-rule="evenodd" clip-rule="evenodd" d="M29.8524 12.3513C29.8524 12.3513 29.7312 12.4061 29.5115 12.3513C29.5208 12.4411 29.5052 12.5318 29.4664 12.6133C29.4276 12.6948 29.367 12.7641 29.2913 12.8134C29.0603 12.7198 26.8977 12.9069 26.8977 12.9069C26.8977 12.9069 25.891 12.7307 25.5773 11.3993C25.3575 10.5133 25.7423 9.29223 25.6157 8.48893C25.4231 7.30591 25.1537 7.07453 25.1261 6.70642C25.0985 6.33831 25.071 6.24438 25.071 6.01336C24.9498 5.9858 24.8784 5.94736 24.7576 5.94736C24.7301 5.83856 24.7848 5.74354 24.6641 5.55096C24.7301 5.57853 25.1812 5.63365 25.7093 6.13413C26.1445 6.54141 26.1445 6.68974 26.2101 6.77243C26.2924 6.85475 26.9583 7.42523 27.2444 7.99389C27.5306 8.56255 28.0862 10.3759 28.2128 10.6729C28.2512 10.794 28.3339 10.9152 28.5392 11.1901C28.8583 11.5865 29.3258 12.2418 29.8538 12.3506L29.8524 12.3513Z" fill="#B58634"/>
<path fill-rule="evenodd" clip-rule="evenodd" d="M26.2881 6.80005C26.6214 7.33843 26.9208 7.89705 27.1846 8.47267C27.5092 9.20417 27.7018 9.80402 28.109 10.2936C27.8889 9.65569 27.4983 8.40122 27.2673 7.9555C27.0087 7.48404 26.4807 6.9763 26.2881 6.80041V6.80005Z" fill="#A88F33"/>
<path fill-rule="evenodd" clip-rule="evenodd" d="M22.5466 15.8449C22.5466 15.8449 21.991 15.9824 20.9566 16.5271C20.6154 16.703 20.2911 16.8513 19.9774 16.9891C19.1625 17.3576 18.2885 17.6981 17.5951 17.886C17.6502 17.952 17.6774 17.9792 17.6774 17.9792C17.6774 17.9792 17.6774 18.249 17.8261 18.4028C17.7438 18.4855 16.6431 19.2337 16.968 21.7368C17.1878 21.6545 17.4464 21.5442 17.4848 21.5442C17.5512 21.5555 17.5675 21.7368 17.6498 21.7368C17.7322 21.7368 18.002 21.628 18.2881 21.2581C18.2773 21.4068 18.1122 22.9031 18.9979 23.9099C19.1629 23.7173 19.581 23.079 19.581 23.079L19.5919 22.8756C19.5919 22.8756 19.6304 22.1658 19.8618 21.5166C20.0931 20.8675 20.5439 20.3888 20.5439 20.3888L22.898 17.0272L22.5458 15.8445L22.5466 15.8449Z" fill="#E6C367"/>
<path fill-rule="evenodd" clip-rule="evenodd" d="M20.3455 20.7808C20.2378 20.8569 20.119 20.9163 19.9934 20.9567C19.9549 20.8192 19.8998 20.346 20.2244 19.8839C20.6041 19.3279 21.4346 18.6073 21.6656 18.0343C21.8143 17.6655 21.7483 16.7414 23.0688 15.5584C24.3893 14.3754 24.9061 13.9685 24.9061 13.9685L27.0407 12.8957L29.665 13.93L28.3612 19.04L27.349 21.4336L23.3234 20.6745L20.3452 20.7808H20.3455Z" fill="#DCBA5A"/>
<path fill-rule="evenodd" clip-rule="evenodd" d="M21.8828 19.3932L22.3837 18.7662V18.3205C22.3837 18.3205 22.9393 18.1718 23.5387 17.561C24.1382 16.9503 24.9691 15.7785 25.701 15.85C26.4328 15.9327 26.5043 17.4399 26.5318 17.8639C26.5594 18.2878 26.653 19.25 26.8013 19.7675C26.9663 20.2847 25.0188 22.2431 25.0188 22.2431L23.6961 23.2498L21.8828 19.3932Z" fill="#E9CE77"/>
<path fill-rule="evenodd" clip-rule="evenodd" d="M23.4326 24.6142C23.4326 24.6142 23.8399 23.9759 23.5414 23.8385C23.7173 23.4424 24.0419 23.0243 24.0419 23.0243C24.0419 23.0243 24.2729 22.4523 25.0211 21.748C25.7693 21.0437 26.2317 20.5759 26.3528 20.103C26.4275 19.7948 26.4681 19.4793 26.4739 19.1622C26.5548 19.2283 26.6413 19.2872 26.7325 19.3381C26.8537 19.3932 27.4256 19.8662 27.3433 20.8182C27.2609 21.7702 26.9081 22.1662 26.9081 22.1662C26.9081 22.1662 26.5671 22.5071 26.3252 22.6834C26.0663 22.8593 25.9731 23.0627 25.5383 23.0794C25.583 23.0439 25.6332 23.0159 25.687 22.9967C25.687 22.9967 25.2358 22.9419 24.9935 23.1617C24.7513 23.3815 24.2363 24.0586 23.9777 24.2624C23.7191 24.4274 23.4337 24.6146 23.4337 24.6146L23.4326 24.6142Z" fill="#CDAE50"/>
<path fill-rule="evenodd" clip-rule="evenodd" d="M41.7253 13.9134C41.0754 13.6765 40.3923 13.5428 39.7009 13.5173C38.5455 13.4789 36.8565 13.5449 35.2006 13.5558C33.4181 13.5666 31.8006 12.945 29.5561 12.8351C29.1876 12.615 28.2505 11.6521 25.3252 13.6932C25.5011 13.6823 27.449 13.2421 28.1253 14.0896C28.8075 14.9314 28.6149 16.3617 28.5217 16.7026C28.3455 17.462 27.7732 18.5678 27.5425 19.3436C27.3119 20.1193 27.3663 20.5269 27.2013 21.0709C27.0363 21.6149 26.6732 21.8851 26.8876 22.5122C27.1737 22.3363 27.3228 22.3363 27.8008 21.2635C28.2788 20.1908 28.1805 19.4259 28.9729 18.5181C29.7486 17.6049 31.0401 16.3559 31.5311 16.0422C32.0222 15.7285 35.9212 13.7041 40.0038 15.6353C40.9884 15.5308 41.7257 13.913 41.7257 13.913L41.7253 13.9134Z" fill="#D2A83E"/>
<path fill-rule="evenodd" clip-rule="evenodd" d="M26.9697 13.1648C26.9657 13.1235 26.9565 13.0828 26.9425 13.0437C26.9043 12.9632 26.8542 12.889 26.7938 12.8235C26.7938 12.8235 25.8255 12.6476 25.3359 12.7024C24.4775 12.796 23.7017 13.8579 23.3387 14.4026C22.9756 14.9473 22.5245 15.7887 22.0349 16.2235C22.0403 16.1812 22.0305 16.1383 22.0073 16.1024C22.0073 16.1024 22.0349 16.1408 21.9801 16.196C21.9254 16.2511 21.925 16.2783 21.9526 16.3048L22.0353 16.3871C22.0625 16.3871 22.8219 16.0458 23.8562 15.0815C24.9565 14.0747 25.7983 13.5583 26.2386 13.3813C26.4734 13.2815 26.7188 13.2089 26.9701 13.1648H26.9697Z" fill="#C29637"/>
<path fill-rule="evenodd" clip-rule="evenodd" d="M45.7521 9.0282C45.7521 9.0282 45.5758 9.24797 45.3557 9.49024C44.8661 10.0074 44.2278 10.5902 43.683 11.1901C43.1662 11.7623 42.5831 12.2081 41.9281 12.9562C41.2731 13.7044 40.5137 14.5349 40.3215 14.7772C40.1456 15.0195 40.0081 15.4155 40.0081 15.6189C39.9146 15.5529 39.8047 15.4815 39.8047 15.4815C39.8509 15.5679 39.9063 15.6491 39.9697 15.7238C40.1072 15.9163 40.3215 16.159 40.4317 16.3069C40.567 16.4953 40.6641 16.7083 40.7175 16.934C40.7835 16.9448 41.2071 17.0275 41.7355 16.1582C42.2639 15.2889 42.9566 14.3373 42.9566 14.3373L44.057 12.7031L44.7504 11.317L45.6208 9.7655L45.7531 9.0282H45.7521Z" fill="#AC8132"/>
<path fill-rule="evenodd" clip-rule="evenodd" d="M46.8818 7.91699C46.8818 7.91699 46.2159 8.46099 45.9573 8.78739C45.6987 9.11379 45.0869 9.97041 45.0869 9.97041L45.3071 9.94285L46.4241 8.95277L46.8593 8.17702L46.8814 7.91844L46.8818 7.91699Z" fill="#A88F33"/>
<path fill-rule="evenodd" clip-rule="evenodd" d="M46.6767 51.6383C46.6767 51.6383 46.6658 51.1871 46.919 50.9176C47.1776 50.6478 47.8322 50.2518 48.4705 48.7663C49.1088 47.2808 49.1799 46.9454 49.1799 46.9454C49.1799 46.9454 48.0356 47.9246 47.3303 48.1556C47.4953 47.8143 47.5888 47.5724 47.6715 47.3962C47.578 47.3138 47.1819 47.2203 47.1435 47.1764C47.3633 46.9562 47.4844 46.417 47.9301 46.0594C48.5024 45.6242 49.5476 44.8763 50.36 44.2098C51.1723 43.5432 52.7695 41.9928 52.9734 41.5416C53.0945 41.7175 53.1217 41.8274 53.1217 41.8274C53.1217 41.8274 52.3187 42.873 51.9006 43.5385C51.5317 44.1108 51.5593 44.4353 51.5593 44.4353L52.3187 44.1089C52.3187 44.1089 52.5385 44.9231 51.543 46.1613C51.9782 45.9963 52.1537 46.0953 52.4011 45.9575C51.9938 46.2164 51.4327 46.5686 50.9047 47.5365C50.3875 48.5048 49.6832 49.6327 48.4951 50.3367C47.3397 51.0794 46.6738 51.635 46.6738 51.635L46.6767 51.6383Z" fill="#A67A2E"/>
<path fill-rule="evenodd" clip-rule="evenodd" d="M43.6947 14.486C43.6947 14.486 43.2435 15.4264 43.1775 16.1582C43.1666 16.3345 43.1224 16.472 43.1224 16.6754C43.1115 17.33 43.1608 18.0619 43.0136 18.4028C42.9585 18.2653 42.9309 18.1718 42.8758 18.117C42.7935 18.348 42.6448 19.0686 42.5236 19.3381C42.4689 19.1622 42.3477 18.5515 42.359 17.8309C42.3702 17.1102 42.3862 16.9724 42.3862 16.8241C42.359 17.0439 42.2103 17.3413 42.1552 17.5172C42.0728 17.3688 41.9793 17.1763 41.869 17.0167C41.803 17.1255 41.7207 17.2861 41.6492 17.3688C41.638 17.3028 41.6108 17.1266 41.5941 16.8792C41.5832 16.5931 41.5666 16.2246 41.5832 16.1474C41.6104 15.999 41.8418 15.4159 42.3314 14.882C42.9146 14.2437 43.5144 13.0172 43.6903 12.6375C43.8662 12.2578 44.6144 10.6791 44.6144 10.6791H45.1867L44.3558 12.5715C44.3558 12.5715 43.8553 13.6058 43.5968 13.9859C43.3382 14.3659 42.7935 15.455 42.5512 15.8786C42.7271 15.6476 42.8758 15.5265 43.052 15.3063C43.2225 15.1522 43.6954 14.4867 43.6954 14.4867L43.6947 14.486Z" fill="#8C6228"/>
<path fill-rule="evenodd" clip-rule="evenodd" d="M46.891 7.84521C46.7976 8.13293 46.6498 8.40007 46.4558 8.6322C46.1146 9.03948 45.3827 9.58384 45.0255 10.0183C44.6991 10.4419 44.0463 11.5974 44.3429 12.9672C44.4517 12.6701 44.6567 12.0815 45.2014 11.4157C45.7461 10.7498 46.3293 9.98531 46.6158 9.39126C46.9016 8.79141 46.94 8.31849 46.94 8.31849L47.0488 8.18104L46.9828 7.86734L46.8892 7.84521H46.891Z" fill="#CBA94C"/>
<path fill-rule="evenodd" clip-rule="evenodd" d="M58.032 44.3374C58.032 44.3374 57.8119 43.7379 57.7459 43.1932C57.6798 42.6485 57.8547 42.5404 57.6523 41.917C57.5312 41.5373 57.3114 41.5906 57.2563 41.5373C57.2011 41.484 57.1627 40.9102 57.1736 40.5965C57.1844 40.2828 57.1627 39.8759 57.1076 39.6996C57.0252 39.6336 56.9701 39.5785 56.849 39.1716C56.7115 38.7643 56.6455 38.5609 56.5795 38.4401C56.5135 38.3193 56.3206 38.2091 56.3206 38.0879C56.3206 37.8457 56.5407 37.7195 56.5407 37.6527C56.5298 37.5153 56.3648 37.6255 56.3206 37.5867C56.2658 37.5207 56.4584 37.1247 56.3869 37.0696C56.3594 37.0424 56.1668 37.2734 56.1171 37.2074C56.062 37.141 55.996 36.4864 55.897 36.0519C55.8038 35.6283 55.7044 35.3204 55.6935 35.1939C55.6826 35.0727 54.9341 32.9381 54.7528 32.4209C54.6066 31.9839 54.4836 31.5395 54.3843 31.0896C54.3292 30.831 54.2907 30.3026 54.2632 30.3577C54.2356 30.4128 54.2523 30.6823 54.208 30.6714C54.1696 30.6602 54.0321 29.7198 53.9883 29.5711C53.9498 29.4224 53.7184 28.9183 53.6619 28.5534C53.6067 28.1846 53.486 27.2217 53.4033 26.5671C53.3206 25.9125 53.2822 25.643 53.2822 25.4791C53.2957 25.0782 53.2736 24.6768 53.2161 24.2798C53.1073 23.5864 52.8897 22.7446 52.699 22.2554C52.3305 21.3309 51.3509 18.9653 51.1758 18.3767C51.1758 18.228 51.3684 18.3106 51.3684 18.3106C51.3684 18.3106 51.8467 19.51 52.1989 20.4341C52.5401 21.3585 52.8647 22.1727 52.9474 22.2554C53.0134 22.3377 53.5306 23.2455 53.7616 24.7309C53.9926 26.2164 54.0749 27.5862 54.2128 28.4994C54.2788 28.9346 54.3339 29.3963 54.4713 29.8583C54.6197 30.3592 54.8507 30.8763 55.1535 31.6684C55.4121 32.3342 55.6047 32.8898 55.7091 33.3686C55.8302 33.9793 55.8302 34.4413 55.9017 34.7442C55.9681 35.0027 56.0667 35.5195 56.2981 36.2674C56.5295 37.0152 56.87 37.9784 57.101 38.5779C57.5525 39.7772 57.7538 40.7786 57.822 41.3124C57.8822 41.8626 58.086 43.7662 58.0309 44.3381L58.032 44.3374Z" fill="#A88F33"/>
<path fill-rule="evenodd" clip-rule="evenodd" d="M46.919 7.77919L46.8915 7.8452C46.8915 7.8452 46.9738 7.87276 46.9575 7.98301C46.9587 8.13385 46.9495 8.28459 46.9299 8.43417C46.9027 8.62674 46.8476 8.77508 46.8367 8.89621C46.8367 9.15479 46.8752 9.45181 46.5103 10.1891C46.4015 10.3926 46.3344 10.5685 46.2793 10.6896C46.1419 10.9866 46.1143 11.0309 45.9932 11.1683C46.1857 11.0595 46.8792 10.6243 47.2309 10.6896C46.989 10.827 46.6202 11.0969 46.3892 11.449C46.4443 11.4599 46.6753 11.5041 47.042 11.449C47.6527 11.3554 48.3349 11.1353 48.9344 11.1792C49.5894 11.2176 49.3308 10.3926 49.3308 10.3926L48.575 8.73119L47.1446 7.72479L46.919 7.77955V7.77919Z" fill="#BE9C44"/>
<path fill-rule="evenodd" clip-rule="evenodd" d="M50.6494 20.2241C50.6494 20.2241 50.0111 19.5858 49.7525 17.3953C49.4939 15.1946 49.5491 11.9553 49.5491 11.9553L49.0319 10.6899C49.0319 10.6899 48.9231 9.8482 48.6522 9.53486C48.3813 9.22151 47.8492 8.69311 47.607 8.43453C47.3647 8.17594 47.0898 7.82379 46.9248 7.76867C47.0071 7.63122 47.376 6.85547 48.7896 6.84459C50.2033 6.83371 50.6392 7.62034 50.7868 7.90648C50.9344 8.19263 51.601 9.42968 51.8484 11.787C52.0794 14.1414 52.0906 14.3177 52.0522 15.1319C52.0246 15.583 51.8759 16.6283 51.617 17.7449C51.3805 18.6915 51.1219 19.7479 50.6487 20.2263L50.6494 20.2241Z" fill="#A17C34"/>
<path fill-rule="evenodd" clip-rule="evenodd" d="M48.6478 22.1002C48.8606 22.1156 49.0731 22.0676 49.2586 21.9624C49.462 21.9515 50.1993 22.0451 50.7658 21.3245C50.8043 21.4891 50.9036 21.9352 50.6447 22.3312C50.7825 22.1934 50.986 22.1387 51.0135 22.1002C51.0244 22.3037 51.217 22.9307 50.4028 24.4546C50.6226 24.2127 50.8811 24.2236 51.1122 24.1961C51.1234 24.4822 51.2772 25.4447 50.8703 25.9622C50.6008 26.3144 50.1605 26.2041 50.1605 26.2041C50.167 26.1273 50.167 26.05 50.1605 25.9731C50.1496 25.8244 50.0945 25.6761 50.1333 25.5771C49.9206 25.4799 49.7268 25.3457 49.561 25.1807C49.0823 24.7295 48.4607 23.9596 48.4168 23.3873C48.3617 22.749 48.934 22.6116 48.934 22.6116C48.886 22.5687 48.8452 22.5185 48.8129 22.4629C48.7853 22.3697 48.7577 22.221 48.6478 22.1002Z" fill="#8C6228"/>
<path fill-rule="evenodd" clip-rule="evenodd" d="M44.4044 15.179C44.4044 15.179 44.3768 15.1406 44.2285 15.3165C44.2561 15.1406 44.2836 14.9752 44.2945 14.8156C44.3647 14.6679 44.4556 14.5309 44.5643 14.4087C44.4817 14.5734 44.4265 14.7221 44.4265 14.7221C44.4265 14.7221 44.6304 14.3424 44.9274 14.1113C45.1308 13.9463 45.3894 13.8694 45.4993 13.7153C45.6204 13.5503 45.5929 13.5227 45.6204 13.4952C45.6204 13.4952 45.8903 13.3193 46.303 12.8017C46.3577 12.7357 46.4404 12.6643 46.4955 12.5983C46.5888 12.5598 46.8089 12.4608 47.0675 12.3285C47.3373 12.1801 47.6398 11.9767 47.8269 11.8933C48.1954 11.7282 48.5863 11.7449 48.7677 11.486C48.9051 11.4475 49.0534 11.0348 49.0262 10.683C49.2297 10.7654 50.2749 11.4145 50.6328 12.834C50.8914 13.8408 50.429 15.3923 50.2365 16.1408C50.0439 16.8894 50.0167 17.4446 49.7469 17.7855C49.4056 18.237 48.3056 18.8735 48.0358 19.1887C47.8048 19.4472 47.1117 20.1019 47.1389 20.5748C47.1665 20.9269 47.601 21.1188 47.6949 21.1855C47.7888 21.2522 47.7881 21.3342 47.9643 21.2943C48.1406 21.2544 48.2062 21.1732 48.2781 21.1732C48.3604 21.1841 48.3604 21.2007 48.3988 21.2007C48.4267 21.1999 48.4544 21.1961 48.4815 21.1895C48.4815 21.1895 48.4539 21.6903 47.2822 21.8423C47.1995 21.8535 47.1172 21.8807 47.0123 21.8974C47.1502 21.8314 47.2325 21.8314 47.3812 21.628C47.2162 21.6004 46.7429 21.5728 46.6218 21.5344C46.6602 21.4684 46.7868 21.2921 46.8912 21.2098C46.9848 21.1275 46.8803 21.101 46.798 21.1438C46.6563 21.2402 46.5203 21.3449 46.3907 21.4571C46.2533 21.5783 46.1322 21.7433 45.912 21.8923C45.846 21.6722 45.8569 21.2541 46.1158 20.9516C46.0495 20.9625 45.9229 21.155 45.8021 21.1166C45.7803 20.9159 45.7933 20.713 45.8406 20.5167C45.9066 20.269 46.2642 19.8346 46.2642 19.8346L47.9915 16.7479L48.36 14.4098L44.4044 15.1783V15.179Z" fill="#92723A"/>
<path fill-rule="evenodd" clip-rule="evenodd" d="M44.3111 15.3111C44.3111 15.3111 44.2175 15.3771 44.4046 15.5037C44.3771 15.5421 44.3111 15.6795 44.2284 15.7731C44.1352 15.8819 44.0358 15.9494 43.9974 16.0429C43.915 16.2355 43.849 16.3675 43.849 16.4502C43.849 16.5329 43.8215 17.0609 43.5905 17.4019C43.5078 17.523 43.4142 17.7264 43.3482 17.8639C43.2107 18.1058 43.0896 18.2991 43.0621 18.4079C43.0073 18.6005 42.9688 19.1285 42.9688 19.1285C42.9688 19.1285 43.09 18.9798 43.1339 18.9251C43.0675 19.0625 42.996 19.2108 42.8916 19.3211C42.9576 19.266 43.1502 19.1285 43.4748 18.8424C43.9259 18.463 44.6302 17.8247 45.4887 17.3192C45.2297 17.4127 45.0099 17.4127 44.834 17.4403C44.9715 17.3028 46.2093 15.8504 46.8585 15.7129C46.8979 15.6629 46.9175 15.6002 46.9136 15.5367L46.3576 15.4819L45.2297 15.7238L45.0651 14.8534L44.3111 15.31V15.3111Z" fill="#B18E3E"/>
<path fill-rule="evenodd" clip-rule="evenodd" d="M46.1057 20.2625C46.1057 20.2625 45.957 20.4108 45.8196 20.7797C45.7137 20.6692 45.623 20.5452 45.5497 20.4108C45.3463 20.0699 45.0329 19.6351 44.3011 19.8828C44.2902 19.6518 44.2735 19.5306 44.3011 19.3656C44.4222 19.3384 44.7907 19.0414 45.1592 18.6066C45.4181 18.3095 45.66 17.9683 45.825 17.5338C45.9338 17.4511 46.122 17.3137 46.369 17.1541C46.7212 16.9122 47.1448 16.5818 47.2108 16.2133C47.0457 16.2793 46.6936 16.4444 46.1652 16.4172C46.369 16.3236 46.6824 16.2246 46.6439 15.8173C46.7266 15.7622 46.7926 15.7237 46.7926 15.7237C46.7306 15.7031 46.6654 15.6937 46.6 15.6962C46.5888 15.6577 46.5725 15.603 46.4789 15.6302C46.3853 15.6574 46.3701 15.6577 46.3578 15.6962C46.3193 15.7074 46.1928 15.6962 46.0992 15.7625C46.0056 15.8289 45.747 16.0483 45.648 16.0868C45.6865 16.0208 45.7412 15.9221 45.7412 15.9221C45.7412 15.9221 45.4718 15.9493 45.2792 16.0309C44.927 16.152 44.5201 16.3722 44.1074 16.5865C44.1459 16.5205 44.1625 16.4777 44.1897 16.4654C44.2169 16.4531 44.2833 16.4382 44.2833 16.4269C44.2833 16.4157 44.2561 16.3181 44.2724 16.2786C44.3958 16.0172 44.5414 15.7669 44.7076 15.5304C44.9002 15.2715 44.9387 14.903 44.9387 14.903L45.7804 14.4794L48.1461 13.9354L49.6812 14.029L49.4887 15.0909L48.582 16.9448L47.8063 18.6338L46.9203 19.6685L46.1061 20.2625H46.1057Z" fill="#543E26"/>
<path fill-rule="evenodd" clip-rule="evenodd" d="M49.9388 15.6672C49.9388 15.6672 49.0144 16.8114 48.7558 16.9877C48.9208 16.6355 49.9388 14.5393 50.3073 13.9562C50.2249 13.8902 50.1147 13.8902 50.3733 12.8682C50.1535 13.385 50.0762 13.6548 49.8949 13.7922C49.7136 13.9297 49.6911 13.8858 49.5685 13.8858C49.5917 13.8439 49.6012 13.7959 49.5957 13.7484C49.5957 13.7484 48.82 13.6548 48.2901 13.6548C47.7603 13.6548 46.7114 13.9409 46.1279 14.1719C45.6659 14.3645 45.4073 14.3645 45.2423 14.4853C45.0772 14.6227 44.9837 14.7714 44.901 14.8099C44.835 14.8483 44.5216 14.9473 44.4498 15.0518C44.3838 15.1606 44.2739 15.2828 44.2739 15.3104C44.2739 15.3379 44.2464 15.3767 44.3291 15.3488C44.3563 15.3379 44.5601 15.2277 44.7911 15.0902C45.1044 14.9143 45.4842 14.7109 45.7594 14.5897C46.546 14.276 46.7937 14.3312 47.1455 14.2652C47.514 14.1992 48.0424 14.045 48.3942 14.045C48.7463 14.0341 49.4122 14.045 49.5663 14.0726C49.5003 14.1277 49.4452 14.1937 49.4728 14.4247C49.4728 14.4907 49.4176 14.5622 49.364 14.7218C49.1993 15.1729 48.8856 15.9211 48.7112 16.3008C48.4693 16.8176 48.1944 17.2524 48.0584 17.5219C47.9224 17.7914 47.6232 18.5011 47.3269 18.8808C47.0306 19.2605 46.8757 19.4915 46.7829 19.5742C46.69 19.6569 46.0234 20.1462 46.0731 20.3224C46.1943 20.284 46.9591 19.996 47.5144 19.3708C48.0696 18.7455 48.1802 18.364 48.6147 18.0227C49.0492 17.6815 49.3904 17.1096 49.5939 16.6366C49.7644 16.1964 49.7259 16.0589 49.9402 15.6683L49.9388 15.6672Z" fill="#806031"/>
<path fill-rule="evenodd" clip-rule="evenodd" d="M30.0184 24.2073C30.0184 24.2073 29.8972 24.7078 29.622 24.9555C29.3525 25.1977 28.8738 25.4066 28.819 25.8139C28.753 26.2208 29.2977 26.4246 29.2977 26.4246C29.2977 26.4246 29.0004 26.9142 29.0004 27.2827C29.0004 27.6624 28.9895 27.7339 29.0279 28.0969C28.9843 28.1249 28.9472 28.162 28.9191 28.2057C28.9191 28.2057 28.9463 28.5578 29.2161 28.7776C29.486 28.9974 29.7166 29.1298 29.8541 29.0746C29.8751 29.1195 29.8935 29.1655 29.9092 29.2124C29.9092 29.2124 30.113 28.6953 30.2505 28.2441C30.3879 27.7821 30.5091 27.8477 30.5638 27.2261C30.6186 26.6045 31.2166 25.5372 31.2166 25.5372L31.6246 24.6251L30.9591 24.1079L30.0184 24.2069V24.2073Z" fill="#B6903C"/>
<path fill-rule="evenodd" clip-rule="evenodd" d="M31.2568 25.1038C31.1195 25.2446 30.9929 25.3954 30.8778 25.5549C30.7019 25.7972 30.5644 26.017 30.3058 26.1109C30.0473 26.2048 29.8823 26.2041 29.8986 26.463C29.9149 26.722 30.1572 26.8315 30.2946 26.9635C30.4433 27.101 30.5644 27.332 30.4984 27.5909C30.5807 27.5525 30.7294 27.5082 30.8669 27.2112C31.0043 26.9142 31.9658 25.1041 31.9658 25.1041H31.2568V25.1038Z" fill="#685026"/>
<path fill-rule="evenodd" clip-rule="evenodd" d="M35.048 20.928C35.048 20.928 35.1304 20.7083 35.048 20.5487C34.9653 20.3837 34.4649 20.3285 34.2172 20.1414C33.9586 19.9488 33.6449 19.815 33.3863 19.8995C33.4247 19.8059 33.5789 19.6021 33.4523 19.5582C33.3312 19.5198 32.8804 19.7233 32.7592 19.8168C32.6381 19.9104 32.3628 20.0203 32.3081 20.0866C32.2533 20.153 32.1594 20.2792 32.1043 20.2241C32.0491 20.1857 32.0219 20.0866 31.9284 20.1414C31.8348 20.1962 31.3844 20.565 31.3013 20.7797C31.2183 20.9944 31.0315 21.4731 30.4704 22.0175C29.9094 22.5618 29.6671 22.9144 29.8322 23.1178C29.9972 23.3213 30.0744 23.1729 30.102 23.3488C30.1232 23.5215 30.1139 23.6966 30.0744 23.866C30.0084 24.1521 29.8985 24.4216 30.0469 24.4767C30.4266 24.5979 30.7954 24.3679 30.8777 24.4383C31.0427 24.5866 30.7842 25.1205 31.1747 25.2249C31.5711 25.3337 31.9617 25.1313 31.9617 25.1313L33.403 24.3556L34.7894 23.6241L35.4988 22.2209L35.1184 21.0492L35.0459 20.928H35.048Z" fill="#D4B968"/>
<path fill-rule="evenodd" clip-rule="evenodd" d="M33.6878 24.2787C33.6878 24.2787 33.4455 23.9102 33.7429 23.5853C34.0403 23.2603 34.4635 23.1233 34.6285 22.9198C34.5971 22.8811 34.555 22.8524 34.5074 22.8375C34.6169 22.6415 34.784 22.4839 34.9861 22.386C34.9038 22.3036 34.7935 22.2376 34.6728 22.2376C34.4029 22.2376 34.2376 22.4026 33.9902 22.4026C33.7483 22.4026 33.7208 22.2815 33.7208 22.2815C33.7208 22.2815 34.128 22.2431 34.0892 22.0614C34.0508 21.8688 33.9804 21.8688 33.9804 21.8688C33.9804 21.8688 34.767 21.5424 34.9045 21.3683C35.0419 21.1942 35.0256 20.9886 35.0532 20.9063C35.1464 20.9063 35.6911 20.6201 35.9113 20.7413C36.1314 20.8624 35.9773 21.1924 35.9773 21.1924C35.9773 21.1924 36.6435 20.6916 36.9829 20.2005C37.28 20.2281 37.4181 19.9971 37.6357 19.9971C37.9056 19.9971 38.3292 20.3655 38.4115 21.1522C38.4666 21.6033 38.5489 21.8619 38.4666 22.6598C38.4282 23.1109 38.439 24.0742 38.5754 24.5522C38.6686 24.9319 38.8888 24.8934 38.8888 24.8934C38.855 25.0091 38.788 25.1124 38.6962 25.1905C38.5475 25.3279 38.5312 25.6913 38.5475 25.8287C38.5694 25.9292 38.597 26.0284 38.6302 26.1258C38.6302 26.1258 38.4543 26.3292 38.41 26.467C38.3716 26.6045 38.1903 26.6981 38.0579 26.6981C37.9255 26.6981 37.9919 26.6868 37.816 26.6981C37.6401 26.7093 37.585 26.7365 37.4747 26.6981C37.3645 26.6596 37.2821 26.6154 37.3264 26.2629C37.3648 25.9107 35.9675 25.0911 35.9675 25.0911L33.6827 24.2769L33.6878 24.2787Z" fill="#CCA849"/>
<path fill-rule="evenodd" clip-rule="evenodd" d="M31.0633 27.7557C31.0633 27.7557 31.5638 28.4215 33.6216 28.4215C34.6008 28.4215 34.9421 28.3279 35.1448 28.2728C35.3649 28.2177 36.19 27.8935 37.0209 26.9139C37.769 26.0283 37.604 25.6652 37.604 25.6652L37.1688 25.5992L35.7544 25.7918L31.5693 27.5743L31.0615 27.7557H31.0633Z" fill="#585136"/>
<path fill-rule="evenodd" clip-rule="evenodd" d="M32.5979 27.9206C32.5979 27.9206 30.8154 28.317 30.8154 27.1891C30.8154 26.0888 31.9158 24.9333 32.191 24.7299C32.4772 24.5261 33.1593 24.2947 33.1593 24.2947H34.8044L35.1177 25.1255L34.9803 26.9189L32.5979 27.9203V27.9206Z" fill="#252211"/>
<path fill-rule="evenodd" clip-rule="evenodd" d="M34.2435 24.6308C34.2435 24.6308 33.9026 24.3171 33.1269 24.7396C32.3511 25.1621 31.7237 26.0452 31.6853 26.8471C31.6468 27.5565 32.2684 28.0849 33.2368 28.1124C33.9574 28.1396 34.3922 28.0573 34.6124 28.0036C34.5572 27.9376 34.2711 27.58 34.2711 27.58L34.2439 24.6312L34.2435 24.6308Z" fill="#C3B378"/>
<path fill-rule="evenodd" clip-rule="evenodd" d="M33.9082 24.8064C33.9082 24.8064 33.8259 24.7404 33.5818 24.8724C33.3784 24.9812 33.0813 25.2688 32.8503 25.4723C32.7016 25.5934 32.6081 25.6482 32.5239 25.7417C32.1827 26.149 31.8965 26.8149 32.0619 27.1449C32.2273 27.4749 32.7716 27.8546 34.1581 27.596L33.9042 24.8068L33.9082 24.8064Z" fill="#E6D89C"/>
<path fill-rule="evenodd" clip-rule="evenodd" d="M33.4568 25.4889C33.4568 25.4889 33.2367 25.8302 33.2367 26.3749C33.2367 26.9305 33.5504 27.8162 34.7059 27.8822C35.5915 27.9373 36.1855 26.606 36.8293 26.0888C37.3189 25.6928 37.6159 25.6815 37.6159 25.6815C37.6159 25.6815 37.1154 25.1375 35.7786 24.4329C34.4582 23.7231 32.9781 23.6296 32.1748 24.719C32.5545 24.6914 33.7814 24.3777 33.7814 24.3777L34.3813 24.5703L33.4568 25.4893V25.4889Z" fill="#252211"/>
<path fill-rule="evenodd" clip-rule="evenodd" d="M35.1835 26.2096C35.1451 26.1272 35.1175 26.017 35.2771 25.9898C35.4367 25.9626 35.5081 25.9785 35.5632 26.0986C35.6183 26.2186 35.672 26.3187 35.5904 26.3684C35.5081 26.4123 35.2934 26.3684 35.1831 26.2088L35.1835 26.2096ZM34.9249 25.4338C34.9249 25.4338 34.8698 25.4723 34.8974 25.3954C34.9082 25.3022 34.9801 25.1368 35.1559 25.1756C35.3318 25.2144 35.2938 25.4066 35.2647 25.4617C35.2357 25.5169 35.0889 25.6101 34.9786 25.5705C34.9646 25.567 34.9517 25.5601 34.9408 25.5506C34.93 25.5411 34.9215 25.5292 34.9162 25.5158C34.9108 25.5024 34.9087 25.4879 34.9099 25.4736C34.9112 25.4592 34.9158 25.4453 34.9235 25.4331L34.9249 25.4338Z" fill="#6F674D"/>
<path fill-rule="evenodd" clip-rule="evenodd" d="M20.0342 25.7856C20.0342 25.7856 20.4694 26.112 20.9749 26.0993C21.4754 26.0881 22.1192 25.5713 22.4162 25.2409C22.5921 25.0483 22.7426 24.8449 22.9058 24.6853C23.0436 24.5478 23.1368 24.4818 23.2028 24.3883C23.2964 24.2795 23.3954 24.0749 23.4451 24.0085C23.3239 24.1021 23.148 24.2675 22.9663 24.3774C22.7904 24.4862 22.4107 24.6907 22.2566 24.7458C22.1083 24.801 20.5677 25.6162 20.5677 25.6162L20.0342 25.7856Z" fill="#AC924C"/>
<path fill-rule="evenodd" clip-rule="evenodd" d="M20.6992 21.7205C20.6992 21.7205 20.9411 21.5554 21.409 21.4506C21.8601 21.3418 22.7679 21.2581 22.7679 21.2581L23.5161 21.5845L23.8131 22.7124L23.2691 23.8845L22.576 24.3197L21.789 23.0543L20.701 21.7226L20.6992 21.7205Z" fill="#9F8E57"/>
<path fill-rule="evenodd" clip-rule="evenodd" d="M19.7189 22.7272L19.46 22.9205C19.46 22.9205 19.5263 22.7994 19.5811 22.4309C19.6359 22.0624 19.9224 21.1656 20.3405 20.6484C20.7587 20.1312 20.7478 20.1588 20.7478 20.1588C20.7093 20.1518 20.6698 20.153 20.6318 20.1624C20.5939 20.1719 20.5583 20.1893 20.5277 20.2136C20.5828 20.0917 20.9349 19.6565 21.2871 19.4389C21.6392 19.2213 21.7767 19.1528 22.1451 19.3301C22.5136 19.5074 22.6072 19.5996 22.877 19.5887C23.1468 19.5778 23.3775 19.2917 23.3775 19.2917C23.3775 19.2917 23.4326 19.4676 23.2292 19.8748C23.0257 20.2821 22.2224 21.1126 22.2224 21.1126L20.5498 22.2568L19.7189 22.7283V22.7272Z" fill="#EAC970"/>
<path fill-rule="evenodd" clip-rule="evenodd" d="M20.9565 21.583C20.9565 21.583 22.1671 21.748 22.5356 21.4071C22.5465 21.4455 22.5907 21.4455 22.5907 21.4731C22.5877 21.4938 22.5781 21.5131 22.5631 21.5278C22.6032 21.5214 22.6437 21.5178 22.6843 21.517C22.7327 21.5314 22.7826 21.5406 22.833 21.5445C22.8736 21.5436 22.914 21.5399 22.9541 21.5333C22.9503 21.5606 22.941 21.5869 22.9268 21.6106C22.9126 21.6343 22.8937 21.6548 22.8714 21.6711C22.9265 21.6711 22.9802 21.682 22.9802 21.7259C22.9802 21.7697 22.9911 21.9021 22.9251 21.9297C22.8704 21.9448 22.8122 21.9408 22.7601 21.9184C22.7644 22.0226 22.7927 22.1244 22.8428 22.2158C22.9516 22.4193 23.1837 22.651 23.4956 22.5843C23.4956 22.5843 23.6602 22.9803 22.9672 23.8605C22.8739 23.9816 22.7746 24.1467 22.6538 24.2841C22.6061 24.3881 22.5696 24.4969 22.545 24.6087C22.545 24.6087 23.7171 24.1575 24.0526 23.1286C24.3939 22.0943 24.4599 21.0767 24.3939 20.125C24.3826 19.8552 24.3388 19.663 24.2728 19.5252C24.1077 19.1839 23.6453 19.239 23.4586 19.4316C23.1887 19.7014 22.7376 20.3724 22.1105 20.8344C21.4722 21.2965 21.445 21.3784 20.9551 21.583H20.9565Z" fill="#D7BC6B"/>
<path fill-rule="evenodd" clip-rule="evenodd" d="M19.5045 23.0685C19.5045 23.0685 19.2734 23.2059 19.1523 23.7213C19.0312 24.2493 19.2611 24.893 19.3942 25.0965C19.5273 25.2999 19.8294 25.8559 20.4561 25.8835C20.6112 25.8827 20.7646 25.8508 20.9072 25.7899C21.126 25.6896 21.3312 25.562 21.518 25.4102C21.7878 25.2067 22.0076 25.0308 21.98 25.0142C21.914 24.9866 20.3186 23.6661 20.3186 23.6661L19.7188 22.9966L19.5041 23.0692L19.5045 23.0685Z" fill="#585136"/>
<path fill-rule="evenodd" clip-rule="evenodd" d="M21.0131 25.2579C21.0131 25.2579 21.3377 25.2307 21.5302 25.1096C21.7228 24.9884 20.4023 23.6792 20.4023 23.6792L20.4959 25.0936L21.0131 25.2579Z" fill="#453A25"/>
<path fill-rule="evenodd" clip-rule="evenodd" d="M19.6089 22.9691C19.6089 22.9691 19.4439 23.2828 19.4439 23.3655C19.4164 23.635 19.4991 24.4822 19.5651 24.7516C19.6311 25.0378 19.9886 25.4722 20.451 25.4722C20.7368 25.4722 21.1332 25.2963 21.1332 25.2525C21.1332 25.1973 20.726 25.1437 20.6161 24.9388C20.5501 24.83 20.5225 24.5594 20.5073 24.286C20.4964 24.1101 20.4964 23.9175 20.5624 23.8508C20.7111 23.6857 20.7383 23.2125 20.7383 23.2125L21.2663 22.2314H20.5718L19.7409 22.7486L19.6089 22.9691Z" fill="#84754B"/>
<path fill-rule="evenodd" clip-rule="evenodd" d="M19.4062 23.272C19.4062 23.272 19.9503 22.5513 20.4406 22.386C20.9309 22.2206 21.1503 22.32 21.1503 22.32L20.8642 23.0518L20.4569 23.503L20.4845 23.734C20.4845 23.734 20.4181 24.3447 20.8254 24.7683C21.2326 25.1919 21.5351 25.1756 21.7114 25.1756C21.8876 25.1756 22.3935 25.0269 22.6521 24.4162C22.8831 23.8442 23.0757 23.1106 22.6137 22.3751C22.1622 21.6432 21.3647 21.6149 21.2105 21.6149C21.0564 21.6149 19.8462 21.6755 19.4062 23.2709V23.272Z" fill="#252211"/>
<path fill-rule="evenodd" clip-rule="evenodd" d="M33.3747 25.72C33.1712 25.6265 33.3638 25.0545 33.5672 24.8783C33.7707 24.702 34.0293 24.4989 34.4808 24.471C34.6455 24.4601 34.805 24.5646 34.7778 24.6748C34.7394 24.8783 34.4532 25.1644 34.1947 25.3679C33.8371 25.6486 33.6057 25.8245 33.3747 25.72Z" fill="#F7F7E7"/>
<path fill-rule="evenodd" clip-rule="evenodd" d="M22.3707 22.6007C22.5194 22.5898 22.712 22.7095 22.7504 22.8705C22.7889 23.0464 22.6568 23.3985 22.3707 23.3985C22.1397 23.3985 22.0186 23.1124 22.0186 23.0301C22.0212 22.9624 22.0401 22.8963 22.0737 22.8375C22.0846 22.8208 22.1121 22.6282 22.3707 22.6007Z" fill="#F8F6DE"/>
<path fill-rule="evenodd" clip-rule="evenodd" d="M20.226 22.7272C20.226 22.7272 19.8463 22.9031 19.6704 23.2712C19.5447 23.5431 19.5067 23.8472 19.5616 24.1416C19.5891 24.2791 19.7266 24.62 19.8202 24.7411C19.9137 24.8623 20.0403 24.9449 20.1339 24.9337C20.2274 24.9225 20.4196 24.6751 20.4196 24.5268C20.4196 24.3785 20.4309 23.751 20.6122 23.4098C20.7718 23.0689 20.2271 22.7276 20.2271 22.7276L20.226 22.7272Z" fill="#D4C38B"/>
<path fill-rule="evenodd" clip-rule="evenodd" d="M20.2799 22.6997C20.2139 22.7381 20.104 22.7933 20.1312 22.8647C20.1588 22.9307 20.3898 22.9735 20.4725 23.1345C20.566 23.2995 20.566 23.4754 20.5385 23.5581C20.6103 23.524 20.6755 23.4773 20.731 23.4203C20.8522 23.2829 21.0005 23.0961 21.1271 23.0961C21.2098 23.0961 21.2921 23.1345 21.3693 23.1345C21.4905 23.1345 21.6112 23.0961 21.6279 22.9695C21.6551 22.8045 21.3969 22.6558 21.2482 22.6834C21.2758 22.5746 21.3142 22.4139 21.1931 22.3037C21.072 22.1934 20.6926 22.3863 20.6099 22.4415C20.5272 22.4966 20.2799 22.7 20.2799 22.7V22.6997Z" fill="#E2D59D"/>
<path fill-rule="evenodd" clip-rule="evenodd" d="M29.0218 34.2586L29.836 34.0182L30.067 34.1832C30.067 34.1832 30.2317 34.5354 30.4906 34.5792C30.408 34.7551 30.1933 34.9056 30.2045 35.0304C30.2157 35.1551 30.3256 35.2505 30.3256 35.2505C30.3256 35.2505 29.5938 36.4607 31.0354 37.6804C30.6941 37.8178 30.2596 38.0068 30.0286 38.1156C30.1933 38.154 30.5454 38.2244 30.6941 38.3579C30.8428 38.4913 30.8428 38.5338 30.9802 38.6164C31.1177 38.6991 31.2 38.809 31.1728 38.8583C31.0793 38.8032 30.7655 38.6386 30.7108 38.7923C30.656 38.9461 29.3519 38.8859 29.3519 38.8859L27.1512 39.3095C27.1512 39.3095 27.2335 39.0894 27.0025 38.8859C26.7331 38.644 26.403 38.8968 26.0509 38.6273C25.5888 38.2752 25.5722 37.8679 25.4238 37.7141C25.5722 37.6206 25.875 37.4831 26.5956 37.3877C26.568 37.3326 26.4745 37.1676 26.5296 37.0193C26.5956 36.8267 26.8705 36.7055 26.7882 36.4753C26.9093 36.4477 26.9641 36.4477 27.2669 36.068C27.553 35.6883 27.7289 35.6059 27.9491 35.5784C28.1692 35.5508 28.3012 35.5784 28.7085 35.1987C28.9943 34.9292 28.9011 34.6982 28.9011 34.6982C28.9011 34.6982 29.0878 34.6376 29.0222 34.2579L29.0218 34.2586Z" fill="#CBAC5A"/>
<path fill-rule="evenodd" clip-rule="evenodd" d="M26.6185 34.3807C26.6293 34.3256 26.6736 34.2981 26.9706 34.3256C27.2676 34.3532 29.1491 34.1497 29.6609 34.1222C30.178 34.0837 31.999 34.1109 32.885 34.2981C33.771 34.4852 34.6675 34.7053 35.102 34.8152C35.5372 34.9364 35.6742 34.9799 35.6576 35.035C35.6467 35.0901 35.5488 35.1438 35.4926 35.1286C35.4378 35.1177 33.9962 34.6774 33.5508 34.5846C33.1055 34.4917 31.5645 34.2433 30.722 34.2582C29.9354 34.2694 29.6217 34.2473 28.9562 34.3242C28.2904 34.4069 27.19 34.5167 26.86 34.4729C26.5336 34.4344 26.6011 34.4344 26.6177 34.3793L26.6185 34.3807Z" fill="#D6BC6F"/>
<path fill-rule="evenodd" clip-rule="evenodd" d="M31.0466 38.6929C31.0466 38.6929 32.1745 39.3036 32.5818 40.0518C32.8788 40.6074 32.4059 40.8827 32.4059 40.8827C32.4059 40.8827 33.0442 40.8827 32.9615 41.2348C32.9231 41.4546 31.8612 42.0486 31.1514 42.3623C30.4308 42.676 30.4584 42.6597 30.1062 42.7145C29.765 42.7696 28.8296 42.6057 28.6371 42.8795C28.4445 43.1533 28.5283 43.4355 28.5819 43.4794C28.6371 43.5178 29.0828 43.5729 29.0828 43.5729C29.0828 43.5729 28.9892 43.8315 28.0651 43.8591C27.1411 43.8866 26.9097 43.9523 26.8546 44.0516C26.7994 44.1448 27.0305 44.0901 27.4544 44.1604C27.878 44.2264 28.4721 44.2692 28.4721 44.2692C28.4721 44.2692 28.2795 44.4343 27.779 44.5663C27.2067 44.7146 26.3098 44.8524 26.0404 45.0174C26.1778 45.111 26.3816 45.2484 26.4756 45.2593C26.2446 45.3144 25.9196 45.4356 25.8648 45.4795C25.9472 45.5346 26.0574 45.6006 26.0574 45.6006C26.0574 45.6006 25.595 46.1562 25.3256 46.294C25.0561 46.4318 23.5046 47.1521 22.9708 47.0146C21.6394 46.6625 21.4744 45.2046 21.1498 45.0947C20.6602 44.9297 20.4292 45.2593 19.9944 45.0283C20.1869 44.8908 20.2917 44.8085 20.4952 44.715C20.2751 44.6062 19.1363 43.8841 19.1363 43.8841C19.0172 43.6245 18.885 43.3712 18.7403 43.125C18.5201 42.7453 18.1963 42.239 17.9533 41.7933C17.4252 40.8141 17.3977 40.363 16.9189 39.8074C17.0016 39.6986 17.2874 39.7138 17.2874 39.7138L21.2985 41.0343L28.4108 41.2402L30.2604 38.5997L31.047 38.6932L31.0466 38.6929Z" fill="#DFC677"/>
<path fill-rule="evenodd" clip-rule="evenodd" d="M20.5107 42.7199C20.5537 42.7677 20.6037 42.8086 20.6591 42.8411C20.7969 42.9346 21.0003 43.0449 21.1378 43.2095C21.1929 43.1272 21.3304 42.9785 21.573 43.2095C21.8156 43.4406 22.117 43.2759 22.3045 43.3307C22.4971 43.397 22.5079 43.4242 22.5079 43.4242C22.5079 43.4242 22.6167 43.3307 22.8601 43.2317C23.0088 43.1765 23.1847 43.1381 23.3773 43.0833C23.5532 43.0449 23.7457 42.9898 23.8781 42.9898C23.9992 43.0721 24.4337 43.5338 26.1778 42.8523C27.8228 42.214 28.2022 42.1426 28.4774 42.2412C28.505 42.1752 28.5326 42.0486 28.9562 42.0653C28.9562 41.8894 28.604 41.2896 28.604 41.2896L26.6619 40.6241H25.5997L22.4144 41.2073L20.6493 42.2144L20.5118 42.7221L20.5107 42.7199Z" fill="#C4A859"/>
<path fill-rule="evenodd" clip-rule="evenodd" d="M19.4492 41.6033C19.4492 41.6033 19.4877 41.9003 19.9279 42.2141C20.3631 42.5274 20.4999 42.7145 20.4999 42.7145C20.4999 42.7145 20.5826 42.6057 20.6486 42.4948C20.7146 42.3736 20.7697 42.2362 20.8796 42.1977C21.0997 42.1042 21.6002 42.2801 21.7104 42.2525C21.804 42.2253 21.7764 42.0327 21.8755 42.0327C22.1065 42.0215 22.2548 42.181 22.3375 42.181C22.4202 42.181 22.6233 42.1702 22.6508 42.1263C22.6784 42.0824 22.6893 41.6254 23.003 41.4053C23.3443 41.1634 23.7624 41.2679 23.8734 41.323C23.8734 41.4053 23.8843 41.6091 24.1044 41.62C24.3245 41.6309 24.3463 41.5924 24.5396 41.6584C24.7329 41.7245 24.9632 41.6476 25.0676 41.9718C25.1612 41.9446 25.3814 41.917 25.3262 41.6033C25.435 41.521 25.5301 41.4659 25.7614 41.1413C25.8166 41.059 25.9098 40.9654 25.9816 40.8443C26.1741 40.8443 26.4052 40.8058 26.7131 41.0753C26.6195 41.1413 26.5644 41.1841 26.5372 41.2512C26.6177 41.3309 26.6912 41.4174 26.757 41.5098C26.8396 41.6186 26.8948 41.752 26.9992 41.7796C27.2302 41.8456 27.6099 41.752 28.0335 41.7796C28.4408 41.8071 28.7817 41.9555 28.9304 42.049C28.9855 42.0218 28.9855 42.0106 29.123 42.0382C29.2604 42.0657 29.3649 42.0766 29.2166 41.9007C29.2989 41.9391 29.3924 42.0218 29.4751 41.9392C29.5578 41.8565 29.6235 41.7357 29.8545 41.7081C30.0855 41.6806 30.1682 41.719 30.2618 41.4771C30.3829 41.1801 29.9647 41.1801 29.9647 41.1801C29.9647 41.1801 30.1573 41.0038 30.372 40.7728C30.6306 40.5309 30.9276 40.2172 30.9991 39.8321C31.1202 39.1223 30.4271 39.0291 30.4271 39.0291L27.0656 40.0634L22.9558 39.8596L19.4514 41.6037L19.4492 41.6033Z" fill="#927D49"/>
<path fill-rule="evenodd" clip-rule="evenodd" d="M16.4296 31.8929C16.4296 31.8929 16.3208 32.0303 16.2537 32.3549C16.1866 32.6795 16.2152 32.6411 16.1601 32.8721C16.105 33.1031 15.4279 35.4028 15.6817 36.1785C15.9356 36.9543 16.3752 37.2404 16.6501 37.8675C16.7052 38.0049 16.7589 38.0876 16.7875 38.2087C16.8811 38.6156 16.7988 38.9294 16.9086 39.3366C16.9471 39.4741 17.0465 39.6337 17.1948 39.7987C17.5212 40.1396 18.0532 40.4642 18.2828 40.6952C18.607 41.0364 19.0694 41.7299 19.658 41.7955C19.9717 41.8339 20.4174 41.7019 20.7859 41.4822C21.1123 41.2783 21.314 40.9926 21.6563 40.8294C21.8982 40.7082 22.1568 40.6644 22.3878 40.6092C22.8665 40.5157 23.3014 40.5004 23.5599 40.5541C23.956 40.6368 24.8913 40.9229 25.4095 40.9229C25.8145 40.9164 26.2172 40.861 26.6089 40.7579C27.3955 40.5269 28.3471 40.1305 28.9746 39.9546C29.343 39.8458 29.6401 39.8172 29.9429 39.7512C30.46 39.63 30.8945 39.465 31.1422 39.1513C30.9772 38.9587 30.7737 38.6617 29.6731 38.6726C28.4244 38.7001 26.9828 39.3932 26.2731 39.5035C25.5633 39.6137 25.2554 39.7069 24.463 39.4208C23.6862 39.1317 23.6604 38.9406 23.6604 38.9406C23.6604 38.9406 22.8448 38.3701 22.5035 36.9158C22.1622 35.4615 22.5035 34.4018 23.3895 33.3947C23.6205 33.1361 23.5654 32.9051 23.5654 32.9051C23.5654 32.9051 24.1486 32.1185 23.989 31.3819C23.8131 30.65 22.6852 30.7987 22.6852 30.7987L16.4299 31.8929H16.4296Z" fill="#6E6342"/>
<path fill-rule="evenodd" clip-rule="evenodd" d="M17.3695 34.3412C17.321 34.4324 17.2982 34.5351 17.3035 34.6383C17.3144 34.7866 17.3586 34.9792 17.804 35.414C18.1837 35.7934 18.101 36.217 18.101 36.217C18.101 36.217 18.2921 36.2554 18.8107 36.0128C19.218 35.8202 19.3547 36.1615 19.3547 36.1615C19.4733 36.0993 19.6018 36.0583 19.7344 36.0403C19.8546 36.0293 19.971 35.9921 20.0753 35.9315C20.0753 35.9315 20.5541 36.4211 20.9722 36.6522C21.3519 36.856 21.5721 36.9934 21.7592 36.856C21.9351 36.7348 21.9351 36.4871 21.9239 36.3773C21.8802 36.2758 21.825 36.1798 21.7592 36.0911C21.6381 35.9152 21.4455 35.7114 21.4328 35.5471C21.4052 35.1678 21.719 34.7162 21.6526 34.6064C21.5862 34.4965 21.3392 34.4689 20.7285 34.689C20.096 34.8979 17.367 34.3423 17.367 34.3423L17.3695 34.3412Z" fill="#39331F"/>
<path fill-rule="evenodd" clip-rule="evenodd" d="M18.8108 36.8005C18.8108 36.8005 18.4975 36.5035 18.6074 35.0619C18.7404 35.06 18.8732 35.0729 19.0034 35.1003C19.0034 35.1003 19.1742 36.2174 18.8108 36.8005Z" fill="#292311"/>
<path fill-rule="evenodd" clip-rule="evenodd" d="M16.5783 30.7926C16.6221 30.7603 16.6626 30.7238 16.6995 30.6838C16.5907 30.8873 16.0884 31.7015 16.4957 32.9835C16.9029 34.2597 17.926 35.2113 19.1859 35.2556C20.4458 35.2998 21.108 34.6833 21.8653 33.7592C22.1623 33.3908 22.5036 32.9284 22.8061 32.615C23.2572 32.125 23.6094 31.9876 23.6094 31.5147C23.6094 30.5464 22.6189 30.1115 21.161 29.677C19.7031 29.2426 18.388 29.2962 17.7059 29.5936C17.0404 29.9179 16.7542 30.2591 16.578 30.793L16.5783 30.7926Z" fill="#252211"/>
<path fill-rule="evenodd" clip-rule="evenodd" d="M21.2589 37.235L21.3677 37.1799C21.3677 37.1799 21.3949 36.7447 21.5712 36.7563C21.747 36.7838 21.8297 37.0152 21.8131 37.0975C21.8022 37.1799 21.7583 37.3177 21.582 37.301C21.351 37.3064 21.2578 37.235 21.2578 37.235H21.2589Z" fill="#3F3824"/>
<path fill-rule="evenodd" clip-rule="evenodd" d="M20.7705 35.3864C20.7705 35.3864 20.8793 35.348 21.0124 35.48C21.1212 35.48 21.5956 35.4249 21.7443 35.5184C21.893 35.612 21.9368 35.6943 21.9368 35.6943C21.9368 35.6943 21.3812 35.8155 21.0784 35.6943C20.7705 35.5899 20.7705 35.3864 20.7705 35.3864Z" fill="#2D2815"/>
<path fill-rule="evenodd" clip-rule="evenodd" d="M23.2185 35.4688C23.2185 35.4412 22.9215 35.2378 22.6078 35.1714C22.5527 35.1605 22.5414 35.199 22.499 35.199C22.4714 35.1881 22.4605 35.1054 22.4605 35.1054L22.2821 35.1993C22.2821 35.1993 22.2545 35.2378 22.3481 35.3081C22.4304 35.3741 22.5683 35.4293 22.6067 35.5392C22.6451 35.649 22.6451 35.6875 22.6618 35.7042C22.6727 35.7151 22.8653 35.7042 22.9588 35.649C23.0524 35.5939 23.2287 35.504 23.2174 35.4677L23.2185 35.4688Z" fill="#82764F"/>
<path fill-rule="evenodd" clip-rule="evenodd" d="M20.4395 36.5858C20.4395 36.5858 20.4942 36.2064 20.863 36.1898C21.2424 36.1622 21.3142 36.5307 21.3142 36.5307L21.0941 36.7508C21.0941 36.7454 20.9291 36.5144 20.4413 36.5858H20.4395Z" fill="#2D2816"/>
<path fill-rule="evenodd" clip-rule="evenodd" d="M22.8333 34.9516C22.8333 34.9516 22.6295 35.1718 22.1787 35.2378C22.1402 35.1827 22.0575 35.0728 22.1787 34.8969C22.2998 34.721 22.4373 34.6659 22.5747 34.7206C22.6353 34.7305 22.6919 34.7574 22.7377 34.7984C22.7836 34.8393 22.8167 34.8925 22.8333 34.9516Z" fill="#574F35"/>
<path fill-rule="evenodd" clip-rule="evenodd" d="M23.6645 35.2215C23.6757 35.1663 23.6373 35.1555 23.6645 35.1279C23.6917 35.1003 23.8407 35.0456 23.8683 35.0728C23.8792 35.084 23.8683 35.1279 23.8683 35.1816C23.8683 35.2353 23.8683 35.2904 23.8408 35.3299C23.8023 35.385 23.6924 35.4126 23.6373 35.3963C23.5822 35.38 23.5713 35.3027 23.5713 35.2875C23.5985 35.2766 23.6645 35.249 23.6645 35.2215ZM24.6038 34.6274C24.6038 34.5999 24.6974 34.5447 24.7525 34.5447C24.8348 34.5447 24.8348 34.6107 24.8461 34.6274C24.8733 34.6383 24.8733 34.6162 24.9008 34.6659C24.9284 34.7156 24.9672 34.8033 24.9393 34.8584C24.9113 34.9136 24.8018 34.9517 24.7746 34.9408C24.7362 34.9132 24.615 34.6659 24.6038 34.6274Z" fill="#82764F"/>
<path fill-rule="evenodd" clip-rule="evenodd" d="M22.7119 35.348C22.7119 35.348 22.833 35.3752 22.9981 35.513C22.9429 35.5515 22.8602 35.5954 22.8602 35.5954C22.8602 35.5954 22.8494 35.4688 22.7119 35.3477V35.348Z" fill="#6E6342"/>
<path fill-rule="evenodd" clip-rule="evenodd" d="M22.4418 34.1374C22.4143 34.1102 22.5242 34.0442 22.5902 34.0551C22.6562 34.066 22.6837 34.1103 22.7552 34.1211C22.8266 34.132 22.8379 34.0936 22.864 34.066C22.8901 34.0384 22.9851 34.0551 23.0014 34.066C23.0116 34.0781 23.0208 34.0909 23.029 34.1044C23.0302 34.0835 23.0356 34.0631 23.045 34.0443C23.0545 34.0256 23.0676 34.009 23.0838 33.9956C23.1049 33.9801 23.1292 33.9696 23.155 33.9648C23.1807 33.9601 23.2072 33.9612 23.2325 33.9681C23.2433 34.0065 23.2985 34.144 23.2876 34.1715C23.2767 34.1991 23.1117 34.2379 23.0838 34.21C23.1113 34.2764 23.2325 34.4138 23.2488 34.441C23.2651 34.4682 23.1277 34.5346 23.0729 34.5237C22.996 34.5183 22.5227 34.243 22.4404 34.1385L22.4418 34.1374ZM23.1625 33.2243C23.1523 33.1965 23.1328 33.1732 23.1073 33.1582C23.0689 33.1474 22.9423 33.1582 22.9423 33.2243C22.9423 33.2903 23.0511 33.6595 23.1733 33.8517C23.3112 34.0442 23.4044 34.2035 23.4979 34.2477C23.5273 34.2611 23.5607 34.2628 23.5913 34.2526C23.6219 34.2424 23.6475 34.2209 23.6629 34.1926C23.6738 34.165 23.7014 33.9616 23.6905 33.4828C23.6796 33.0041 23.6629 32.5421 23.6354 32.5145C23.6078 32.487 23.4979 32.4873 23.4595 32.5421C23.421 32.5968 23.1733 33.1419 23.1621 33.2243H23.1625Z" fill="#585136"/>
<path fill-rule="evenodd" clip-rule="evenodd" d="M22.6738 36.0411C22.6738 36.0411 22.4812 35.92 22.2941 36.0026C22.1182 36.0853 22.129 36.4099 22.129 36.4099C22.1686 36.4254 22.2114 36.431 22.2536 36.4262C22.2958 36.4214 22.3362 36.4063 22.3713 36.3824C22.4924 36.3 22.6462 36.1626 22.6738 36.0414V36.0411Z" fill="#574F35"/>
<path fill-rule="evenodd" clip-rule="evenodd" d="M23.0365 36.4759C23.0257 36.3671 22.9277 36.3671 22.9277 36.3109C22.9345 36.284 22.95 36.2602 22.9719 36.2432C22.9938 36.2263 23.0208 36.2172 23.0485 36.2173C23.1036 36.2173 23.1573 36.2833 23.2248 36.3261C23.2908 36.3646 23.3898 36.4349 23.4007 36.5187C23.4115 36.6025 23.2919 36.8321 23.1588 36.8321C23.0257 36.8321 23.0652 36.5844 23.0376 36.4745L23.0365 36.4759ZM24.0984 36.3272C24.0984 36.3272 23.8783 36.3932 23.8946 36.3272C23.9109 36.2612 23.961 36.2449 24.0324 36.2449C24.0687 36.2069 24.1175 36.1833 24.1699 36.1785C24.1998 36.1771 24.2292 36.1869 24.2522 36.2061C24.2522 36.2061 24.4009 36.1401 24.4448 36.1785C24.4887 36.217 24.456 36.217 24.4832 36.2612C24.5178 36.3103 24.5406 36.3668 24.5496 36.4262C24.5496 36.4701 24.3846 36.5637 24.2522 36.5474C24.0984 36.5144 24.1256 36.3548 24.0984 36.3272ZM25.3801 36.0795C25.3801 36.0795 25.4461 36.118 25.3913 36.1622C25.3529 36.2007 25.1603 36.271 24.9949 36.2833C24.8299 36.2833 24.6816 36.3105 24.6816 36.2558C24.6816 36.201 24.819 36.0908 24.9014 36.0632C24.9179 36.0425 24.9388 36.0259 24.9627 36.0144C24.9866 36.003 25.0127 35.9971 25.0392 35.9972C25.1052 35.9972 25.3634 35.9696 25.4352 35.9588C25.5012 35.9475 25.5563 35.986 25.5175 36.0411C25.5012 36.0795 25.3801 36.0795 25.3801 36.0795ZM25.7598 34.3808C25.7598 34.3808 25.6771 34.5567 25.5839 34.5567C25.4903 34.5458 25.4903 34.5182 25.4903 34.4907C25.4903 34.4522 25.5839 34.3532 25.5727 34.3257C25.5455 34.3257 25.4791 34.3257 25.4903 34.2597C25.4903 34.2045 25.5839 34.1385 25.6662 34.1509C25.7284 34.0997 25.8059 34.0708 25.8864 34.0685C25.9799 34.0685 26.0623 34.0957 26.0623 34.1509C26.0623 34.206 25.9535 34.3268 25.9136 34.3547C25.8697 34.3986 25.8146 34.4272 25.7598 34.3819V34.3808ZM24.5053 37.6321C24.5053 37.6321 24.3965 37.6433 24.3965 37.6981C24.3965 37.7257 24.4237 37.7257 24.4625 37.7094C24.4849 37.7081 24.507 37.7043 24.5285 37.6981C24.5394 37.7094 24.5394 37.7641 24.6221 37.7641C24.69 37.755 24.7554 37.7325 24.8147 37.6981C24.8807 37.6709 24.9358 37.643 24.9358 37.5893C24.9083 37.4957 24.8531 37.4515 24.7708 37.4515C24.7286 37.4488 24.6866 37.4584 24.6497 37.4791C24.6497 37.4791 24.6221 37.4239 24.5285 37.4791C24.435 37.5342 24.4459 37.5342 24.4734 37.5617C24.5227 37.6056 24.5064 37.6343 24.5064 37.6343L24.5053 37.6321ZM23.8837 38.2044C23.8837 38.1768 24.0212 38.1217 24.0596 38.1384C24.0981 38.1493 24.2079 38.3582 24.2079 38.3803C24.2079 38.4078 24.0705 38.4739 24.0154 38.4739C23.9602 38.4739 23.867 38.3803 23.867 38.3651C23.867 38.3542 23.933 38.3379 23.933 38.3266C23.9494 38.2994 23.8837 38.233 23.8837 38.2055V38.2044ZM23.4485 37.4011C23.4761 37.3902 23.4761 37.3626 23.5145 37.3351C23.5266 37.3271 23.5403 37.3219 23.5546 37.32C23.5689 37.3182 23.5835 37.3196 23.5972 37.3242C23.6069 37.3069 23.6203 37.292 23.6365 37.2805C23.6527 37.269 23.6712 37.2613 23.6908 37.2578C23.7568 37.247 23.8119 37.2578 23.7996 37.2854C23.7996 37.3681 23.8547 37.4228 23.8547 37.4888C23.8547 37.5549 23.8163 37.6375 23.6788 37.6927C23.5414 37.7311 23.3542 37.7311 23.3267 37.7202C23.2991 37.7094 23.2715 37.5991 23.2991 37.544C23.3267 37.4889 23.4036 37.4286 23.4478 37.4011H23.4485Z" fill="#82764F"/>
<path fill-rule="evenodd" clip-rule="evenodd" d="M23.6242 37.4385C23.6242 37.4385 23.5306 37.4936 23.5306 37.5212C23.5223 37.5478 23.5186 37.5756 23.5197 37.6035C23.5197 37.6198 23.6408 37.5926 23.6572 37.5759C23.6626 37.565 23.6242 37.4671 23.6242 37.4385Z" fill="#6E6342"/>
<path fill-rule="evenodd" clip-rule="evenodd" d="M22.8053 37.1799C22.8601 37.1911 22.9537 37.1799 23.0251 37.2074C23.0802 37.235 23.1187 37.2901 23.0636 37.3561C23.0084 37.4221 22.9548 37.5212 22.8325 37.5045C22.6951 37.4936 22.5631 37.4221 22.5631 37.367C22.5608 37.3321 22.5654 37.2972 22.5767 37.2641C22.5881 37.231 22.6059 37.2006 22.6291 37.1744C22.6842 37.1306 22.7114 37.1581 22.805 37.1799H22.8053Z" fill="#585136"/>
<path fill-rule="evenodd" clip-rule="evenodd" d="M22.7394 37.235C22.7394 37.235 22.5635 37.3724 22.5192 37.4388C22.4641 37.5048 22.1946 37.8457 22.1123 37.9172C22.1397 37.8689 22.1708 37.823 22.2055 37.7797C22.0967 37.8493 22.0151 37.9542 21.9745 38.0767C21.9085 38.2806 22.3433 38.3904 22.6291 38.4731C22.9149 38.5558 23.0255 38.5819 23.0255 38.5819C22.9203 38.4238 22.83 38.2563 22.7557 38.0815C22.6469 37.8229 22.5907 37.7953 22.6621 37.6742C22.7172 37.553 22.7999 37.4707 22.7999 37.3772C22.7669 37.2901 22.7394 37.235 22.7394 37.235Z" fill="#574F35"/>
<path fill-rule="evenodd" clip-rule="evenodd" d="M16.4675 37.6698C16.5076 37.6772 16.5486 37.6772 16.5887 37.6698C16.671 37.6586 17.5294 37.3434 18.4263 37.4C19.0977 37.4406 19.7632 37.5499 20.4122 37.7264C21.5401 38.0234 22.9429 38.612 23.8507 38.9478C24.0926 39.041 24.3294 39.2064 24.5035 39.2721C25.1969 39.5419 25.2241 39.5419 25.6314 39.6133C26.1101 39.6793 26.5997 39.5198 27.1114 39.4099C27.7385 39.2721 28.8112 39.2061 29.752 39.0686C30.0562 39.0264 30.3563 38.9584 30.6489 38.8652C30.6489 38.8652 29.9007 39.6133 28.1069 39.8828C27.3819 39.9929 26.6451 40.0022 25.9175 39.9104C25.3452 39.8552 24.9659 39.7725 24.6797 39.6902C24.3552 39.5967 23.6893 39.349 22.8697 39.1462C22.2974 38.9975 21.6591 38.8876 20.9276 38.7502C19.123 38.4198 17.1646 38.0404 16.4668 37.672L16.4675 37.6698Z" fill="#252211"/>
<path fill-rule="evenodd" clip-rule="evenodd" d="M14.4429 34.2698C14.0077 34.6383 13.546 34.9905 13.0952 35.3314L11.7363 36.3755C11.2742 36.7164 10.8231 37.0685 10.3607 37.4098C9.89829 37.7511 9.43661 38.0753 8.94629 38.389C9.38149 38.0205 9.84316 37.6793 10.3052 37.3438C10.7672 37.0083 11.2463 36.6794 11.692 36.3392L13.051 35.2936C13.5184 34.9527 13.9696 34.6006 14.4429 34.2706V34.2698ZM12.0387 38.121C12.0387 38.121 12.5283 37.7137 13.1391 37.1418C13.8981 36.4324 14.828 35.5243 15.125 35.3596L12.0384 38.1214L12.0387 38.121Z" fill="#CFB66C"/>
<path fill-rule="evenodd" clip-rule="evenodd" d="M12.0391 38.1206C12.2813 37.8787 12.5399 37.6423 12.7985 37.4109L13.1945 37.07C13.3156 36.9612 13.4535 36.8389 13.5742 36.7178C13.8161 36.4759 14.053 36.217 14.2948 35.9696C14.4147 35.8452 14.5415 35.7277 14.6746 35.6175C14.7411 35.5586 14.815 35.5086 14.8943 35.4688C14.9607 35.4303 15.0322 35.36 15.1254 35.3477C15.0706 35.4303 15.0046 35.4688 14.9495 35.5402C14.8835 35.5954 14.8283 35.6614 14.7736 35.7161C14.6524 35.8373 14.515 35.9471 14.3939 36.0574C14.1353 36.2775 13.8658 36.4926 13.6072 36.7229C13.3487 36.9532 13.1068 37.2016 12.8478 37.4326C12.5675 37.6695 12.3089 37.9005 12.0391 38.1217V38.1206ZM15.3292 35.9199C15.3292 35.9199 13.5358 37.6753 13.167 37.961L15.3292 35.9199Z" fill="#CFB66C"/>
<path fill-rule="evenodd" clip-rule="evenodd" d="M15.3292 35.9199C15.1679 36.1067 14.9949 36.283 14.8113 36.448L14.2673 36.9651C14.0914 37.141 13.9261 37.3173 13.7393 37.4932C13.5467 37.6582 13.3708 37.8196 13.167 37.9719L13.695 37.4547C13.8713 37.2788 14.0639 37.1305 14.251 36.9542L14.779 36.4371C14.9604 36.2558 15.1366 36.0795 15.3292 35.9199ZM15.4115 36.8716C15.2462 37.3329 15.0514 37.7832 14.8284 38.2196C14.3663 39.144 13.6733 40.2991 13.3704 40.8881L15.4115 36.8716Z" fill="#CFB66C"/>
<path fill-rule="evenodd" clip-rule="evenodd" d="M15.4106 36.8719C15.4106 37.0754 15.3555 37.2517 15.2895 37.4276C15.2252 37.6036 15.1518 37.7762 15.0697 37.9447C14.9871 38.1097 14.8935 38.286 14.7999 38.4456C14.7063 38.6051 14.5965 38.7698 14.5138 38.9352L13.9582 39.9144C13.7656 40.2408 13.5785 40.569 13.375 40.8827C13.5125 40.5305 13.6996 40.2005 13.8758 39.8759C14.0684 39.5495 14.2443 39.2231 14.4198 38.8855C14.5055 38.7172 14.5826 38.5447 14.6509 38.3687C14.7332 38.1924 14.8155 38.0274 14.8819 37.8678C14.9642 37.6919 15.0302 37.5266 15.1129 37.3673C15.2061 37.1965 15.2834 37.0315 15.4099 36.8719H15.4106Z" fill="#CFB66C"/>
<path fill-rule="evenodd" clip-rule="evenodd" d="M17.3694 41.3832C17.3694 41.3832 16.8254 42.1038 16.8798 43.017C17.0281 42.5386 17.2153 41.8068 17.3694 41.3832ZM17.8866 42.1056C17.8866 42.1056 17.694 44.064 17.5344 45.0269C17.76 43.9139 17.8039 44.0074 17.8866 42.1056ZM21.49 45.1426C21.49 45.1426 20.6758 47.5362 20.6592 48.2013C20.8354 47.5173 21.1763 46.12 21.49 45.1408V45.1426Z" fill="#DEC270"/>
<path fill-rule="evenodd" clip-rule="evenodd" d="M23.3945 41.2352C23.3945 41.2352 24.715 43.4137 25.7054 45.2731C25.4374 44.3374 24.8209 42.6213 23.3945 41.2352Z" fill="#CBAF59"/>
<path fill-rule="evenodd" clip-rule="evenodd" d="M26.9434 44.4423C27.6684 45.7238 28.3222 47.0443 28.9018 48.3979C28.7919 47.4625 28.4945 45.8617 26.9434 44.4423Z" fill="#E3C677"/>
<path fill-rule="evenodd" clip-rule="evenodd" d="M37.3738 47.6544C37.5935 47.5169 38.0284 46.7684 38.4081 46.5816C38.7874 46.3891 39.0736 46.3506 39.4148 45.9709C39.7558 45.5745 39.85 45.3326 40.5975 45.0193C41.6431 44.5677 40.9239 43.9846 40.9239 43.9846C41.0391 43.8714 41.1622 43.7667 41.2924 43.6712C41.5622 43.4678 41.8755 43.2201 41.8483 42.7852C41.8099 42.0537 41.6724 40.9918 41.0726 40.3757C41.6558 40.2545 42.7724 40.1722 43.4662 39.9963C44.2691 39.7925 44.638 39.5064 44.638 39.5064C44.638 39.5064 44.1759 38.7197 44.9241 37.9277C45.6723 37.1356 46.283 36.6623 46.7342 35.7763C46.217 35.7103 45.4286 35.4354 43.4165 36.1999C43.5251 36.251 43.63 36.3098 43.7302 36.3758C43.7302 36.3758 42.4924 36.7171 42.0413 37.0968C41.2543 37.7623 41.1553 38.307 40.3027 38.7143C39.45 39.1216 38.5916 39.0113 37.8822 39.3414C37.1728 39.6714 37.068 39.9521 36.8091 40.0732C36.8642 40.1392 36.7982 40.2491 36.9027 40.3427C36.8367 40.4362 36.4515 41.0633 36.0609 41.0633C36.0993 41.212 36.4294 41.3219 36.4294 41.3219C36.4294 41.3219 36.1875 41.4981 35.5713 41.542C35.8847 41.8684 36.182 42.2242 37.0017 42.7414C36.9357 42.8788 36.6604 43.0826 36.7706 43.3412C36.8918 43.5998 37.2058 43.9519 38.4596 44.2381C37.8213 44.2653 37.0735 44.414 36.066 44.2765C35.0592 44.1554 34.8942 44.0839 34.2726 44.2381C34.3386 44.3041 34.5145 44.3041 34.6686 44.48C34.5036 44.4909 33.4693 44.3588 33.1171 44.8212C32.7487 45.2996 32.5891 46.0866 32.6167 46.6146C32.4241 46.7082 32.237 46.8732 32.3305 47.2145C32.4241 47.5557 32.9137 47.6656 33.2274 47.88C33.5407 48.111 33.5683 48.1933 33.8657 48.1386C34.179 48.0725 34.6411 47.7592 34.9109 47.7592C35.1807 47.7592 35.3729 47.9627 35.3729 47.9627C35.3729 47.9627 36.1048 47.6105 36.1762 47.6765C36.2422 47.7425 36.1871 48.1661 36.2586 48.2321C36.3311 48.2818 37.1554 47.7922 37.3756 47.6544H37.3738Z" fill="#ECD592"/>
<path fill-rule="evenodd" clip-rule="evenodd" d="M53.3679 25.6376C49.9294 16.7581 41.4293 15.113 41.4293 15.113H17.1781L17.2717 24.1576H22.1013V44.3541H17.1777V53.3823H40.758C46.4409 53.3823 50.9964 47.6714 50.9964 47.6714C58.2914 37.3177 53.3675 25.6376 53.3675 25.6376H53.3679ZM40.8845 41.5866C40.8845 41.5866 39.0349 44.2551 37.0225 44.2551H32.9969L32.9015 24.1797H38.0677C38.0677 24.1797 40.4613 24.6802 42.1336 29.417C42.1336 29.417 44.3505 36.1988 40.8845 41.5866Z" fill="white" fill-opacity="0.8"/>
</g>
<defs>
<clipPath id="clip0_1872_38794">
<rect width="68" height="68" fill="white" transform="translate(0.666992)"/>
</clipPath>
</defs>
</svg>
