<svg width="68" height="68" viewBox="0 0 68 68" fill="none" xmlns="http://www.w3.org/2000/svg">
<rect width="68" height="68" rx="34" fill="#4A9079"/>
<g clip-path="url(#clip0_1872_38526)">
<path d="M50.9988 50.3611H39.1417L39.1313 50.3506L39.037 50.2773L24.3623 38.8182L30.3746 34L50.9045 50.2773L50.9988 50.3611Z" fill="white"/>
<path d="M50.9988 17.639H39.1417L39.1313 17.6495L39.037 17.7228L24.3623 29.1818L30.3746 34L50.9045 17.7228L50.9988 17.639Z" fill="white"/>
<path d="M24.3635 34.7228V38.8078V38.8183V50.2773V50.3506L24.353 50.3401L24.2588 50.2668L17.1257 44.6316L17.1047 44.6211L17 44.5373V23.4628L17.1047 23.379L17.1257 23.3685L24.2693 17.7123L24.3635 17.639V17.7123V29.1713V29.1818V33.9896V34.7228Z" fill="white"/>
</g>
<defs>
<clipPath id="clip0_1872_38526">
<rect width="34" height="32.7221" fill="white" transform="translate(17 17.639)"/>
</clipPath>
</defs>
</svg>
