<svg width="69" height="68" viewBox="0 0 69 68" fill="none" xmlns="http://www.w3.org/2000/svg">
<g clip-path="url(#clip0_1872_38523)">
<path d="M34.3338 64.32C51.0791 64.32 64.6539 50.7452 64.6539 33.9999C64.6539 17.2546 51.0791 3.67981 34.3338 3.67981C17.5884 3.67981 4.01367 17.2546 4.01367 33.9999C4.01367 50.7452 17.5884 64.32 34.3338 64.32Z" fill="white"/>
<path d="M34.334 0C27.6094 0 21.0359 1.99407 15.4446 5.73003C9.85334 9.466 5.49547 14.7761 2.9221 20.9888C0.348716 27.2015 -0.324597 34.0377 0.9873 40.6331C2.2992 47.2284 5.53738 53.2867 10.2924 58.0416C15.0474 62.7966 21.1056 66.0348 27.7009 67.3467C34.2963 68.6586 41.1325 67.9853 47.3452 65.4119C53.5579 62.8385 58.868 58.4807 62.604 52.8894C66.3399 47.2981 68.334 40.7246 68.334 34C68.347 29.548 67.483 25.1371 65.7913 21.019C64.0996 16.901 61.6133 13.1564 58.4745 9.99925C55.3356 6.84205 51.6056 4.33402 47.4975 2.61834C43.3894 0.902668 38.9836 0.0129543 34.5316 0H34.334ZM34.9103 35.1525L31.3703 47.0896H50.3049C50.4304 47.0852 50.5554 47.1056 50.673 47.1495C50.7905 47.1935 50.8983 47.2602 50.99 47.3458C51.0818 47.4315 51.1557 47.5343 51.2077 47.6486C51.2597 47.7628 51.2886 47.8862 51.2928 48.0116V48.3245L49.6463 54.0048C49.5737 54.2735 49.412 54.5094 49.1876 54.674C48.9632 54.8386 48.6895 54.9219 48.4115 54.9104H19.4333L24.2904 38.3632L18.857 40.0097L20.0919 36.2228L25.5253 34.5763L32.3582 11.3608C32.4334 11.0937 32.5959 10.8594 32.8197 10.6953C33.0434 10.5312 33.3157 10.4467 33.5931 10.4552H40.92C41.0454 10.4508 41.1704 10.4712 41.288 10.5151C41.4055 10.5591 41.5133 10.6258 41.605 10.7115C41.6968 10.7971 41.7707 10.9 41.8227 11.0142C41.8747 11.1284 41.9036 11.2518 41.9078 11.3772V11.6901L36.1451 31.2833L41.5785 29.6368L40.426 33.5884L34.9103 35.1525Z" fill="#345D9D"/>
</g>
<defs>
<clipPath id="clip0_1872_38523">
<rect width="68" height="68" fill="white" transform="translate(0.333984)"/>
</clipPath>
</defs>
</svg>
