<?xml version="1.0" encoding="UTF-8"?>
<svg id="Layer_1" data-name="Layer 1" xmlns="http://www.w3.org/2000/svg" viewBox="0 0 74.79 83.35">
  <defs>
    <style>
      .cls-1 {
        fill: #fff;
      }
    </style>
  </defs>
  <g>
    <path class="cls-1" d="M15.15,31.22l1.5-1.5v-11.65h9.68c-.05-.58-.09-1.16-.09-1.75s.04-1.17.09-1.75h-11.82l-1.27.54L.48,28.51l-.48,1.21v51.89l1.75,1.75h56.4l1.75-1.75v-40.61h-3.5v38.86H3.5V31.22h11.65ZM13.65,19.76v8.46H5.6l8.05-8.46Z"/>
    <path class="cls-1" d="M74.79,34.46l-2.02-1.6-10.95-8.69c1.29-2.33,2.02-5.01,2.02-7.85C63.84,7.32,56.52,0,47.52,0s-16.32,7.32-16.32,16.32,7.32,16.32,16.32,16.32c4.18,0,7.98-1.59,10.87-4.18l12.98,10.31,3.41-4.29ZM47.52,28.64c-6.79,0-12.32-5.53-12.32-12.32s5.53-12.32,12.32-12.32,12.32,5.53,12.32,12.32-5.53,12.32-12.32,12.32Z"/>
  </g>
  <polygon class="cls-1" points="9.79 66.65 23.94 51.99 35.83 61.4 49.91 41.16 49.96 48.96 36.79 67.9 24.35 58.05 9.79 73.19 9.79 66.65"/>
  <polygon class="cls-1" points="13.65 17.69 1.96 29.58 13.65 29.58 15.2 27.42 13.65 17.69"/>
</svg>