<?xml version="1.0" encoding="UTF-8"?>
<svg id="Layer_1" data-name="Layer 1" xmlns="http://www.w3.org/2000/svg" viewBox="0 0 74.27 69.86">
  <defs>
    <style>
      .cls-1 {
        fill: #fff;
      }
    </style>
  </defs>
  <polygon class="cls-1" points="0 47.51 .02 42.89 .03 40.15 28.54 11.46 45.63 28.45 74.21 0 74.27 7.28 45.63 35.76 28.57 18.79 0 47.51"/>
  <g>
    <polygon class="cls-1" points=".02 69.86 6.33 69.86 6.33 52.92 .02 59.26 .02 69.86"/>
    <polygon class="cls-1" points="17 69.86 23.31 69.86 23.31 35.85 17 42.19 17 69.86"/>
    <polygon class="cls-1" points="67.93 25.33 67.93 69.86 74.24 69.86 74.24 19.06 67.93 25.33"/>
    <polygon class="cls-1" points="50.96 69.86 57.26 69.86 57.26 35.95 50.96 42.23 50.96 69.86"/>
    <polygon class="cls-1" points="33.98 69.86 40.28 69.86 40.28 42.22 33.98 35.94 33.98 69.86"/>
  </g>
</svg>