<svg width="105" height="20" viewBox="0 0 105 20" fill="none" xmlns="http://www.w3.org/2000/svg">
<g clip-path="url(#clip0_1031_4756)">
<path d="M14.1184 10.0321C13.72 9.93222 13.3464 9.75177 13.0204 9.50187C12.6944 9.25197 12.4231 8.93791 12.2231 8.57906C12.2095 8.55267 12.2029 8.52322 12.2038 8.49352C12.2048 8.46385 12.2133 8.43486 12.2286 8.40942C12.2439 8.38395 12.2654 8.3628 12.2911 8.34798C12.3169 8.33316 12.346 8.32519 12.3756 8.32477H13.2035C12.5931 7.86008 12.0989 7.25989 11.7599 6.57154C11.421 5.88315 11.2464 5.12542 11.2501 4.35806C11.2755 3.55066 11.5028 2.76254 11.9113 2.06576C12.3198 1.36898 12.8964 0.785788 13.5883 0.369541C13.8232 0.23253 14.0656 0.108829 14.3144 -0.000976562C12.6544 0.102406 11.0802 0.772821 9.85492 1.89817C8.62967 3.02353 7.82768 4.5356 7.58308 6.18158H7.08203C5.50604 6.18158 3.97593 6.71255 2.73842 7.6889C1.50091 8.66529 0.628089 10.0302 0.260673 11.5635C-0.106743 13.0968 0.0526522 14.7093 0.713164 16.1409C1.37367 17.5725 2.49681 18.7399 3.90151 19.4548C3.97626 18.2684 4.50727 17.1571 5.38318 16.3539C6.2591 15.5507 7.41186 15.118 8.59968 15.1467L11.3736 15.212C12.057 15.2103 12.7156 14.9554 13.2225 14.4966C13.7293 14.0378 14.0484 13.4076 14.1184 12.7274C14.2055 11.8047 14.2999 10.8603 14.358 10.3808C14.3644 10.3039 14.3441 10.2272 14.3004 10.1636C14.2567 10.1001 14.1924 10.0536 14.1184 10.0321ZM22.0189 6.66833C21.9219 5.4767 21.5325 4.32743 20.8852 3.32246C20.238 2.31748 19.3528 1.48785 18.3082 0.907154C17.6406 0.588948 16.9031 0.445989 16.165 0.491746C15.4269 0.537503 14.7126 0.770467 14.0893 1.1687C13.5318 1.49972 13.0658 1.96484 12.7335 2.52182C12.4013 3.07879 12.2134 3.70997 12.1867 4.35806C12.1828 5.02202 12.345 5.67643 12.6588 6.26151C12.6552 6.21797 12.6552 6.17423 12.6588 6.13073C12.6588 5.29641 12.9901 4.49628 13.5798 3.90632C14.1694 3.3164 14.9691 2.98496 15.8031 2.98496H16.1806L15.8031 3.92941C15.5141 3.9237 15.2269 3.97495 14.9577 4.08029C14.6886 4.18563 14.4428 4.34297 14.2345 4.54333C13.8137 4.94798 13.5708 5.50332 13.5592 6.08715C13.5477 6.67095 13.7684 7.23547 14.1729 7.65648C14.5773 8.07746 15.1324 8.32047 15.7159 8.33204H18.5043C18.5869 8.33539 18.6668 8.36257 18.7343 8.41031C18.8018 8.45804 18.8541 8.52434 18.8848 8.60112C18.9155 8.67794 18.9233 8.76201 18.9074 8.84315C18.8914 8.92433 18.8523 8.99912 18.7948 9.05853L17.7854 9.95216C17.5854 10.131 17.4364 10.3597 17.3534 10.6149C17.2705 10.8702 17.2567 11.1428 17.3134 11.4052C17.524 12.3641 17.8363 13.8753 17.9524 14.5727C18.2708 16.2386 17.9297 17.9631 17.0012 19.3822C17.8456 19.7674 18.7595 19.9766 19.6873 19.9971C20.6151 20.0177 21.5374 19.8491 22.3981 19.5017C23.2587 19.1543 24.0397 18.6353 24.6935 17.9763C25.3472 17.3174 25.8602 16.5321 26.201 15.6686C26.5418 14.805 26.7035 13.881 26.676 12.9529C26.6486 12.0248 26.4327 11.112 26.0415 10.27C25.6502 9.42806 25.0919 8.67457 24.4003 8.05536C23.7088 7.43619 22.8985 6.96426 22.0189 6.66833Z" fill="#6B6B6B"/>
<path d="M32.0559 17.9007C31.9937 17.9019 31.9319 17.8903 31.8744 17.8665C31.817 17.8428 31.765 17.8074 31.7219 17.7625C31.6759 17.7184 31.6393 17.6654 31.6143 17.6067C31.5894 17.548 31.5767 17.4848 31.5767 17.4211V5.9786C31.5767 5.91483 31.5894 5.85169 31.6143 5.793C31.6393 5.73431 31.6759 5.68129 31.7219 5.63713C31.765 5.59231 31.817 5.55687 31.8744 5.53313C31.9319 5.50936 31.9937 5.49779 32.0559 5.4991H37.2842C37.9356 5.4691 38.5861 5.57549 39.194 5.81149C39.658 6.01195 40.0739 6.30916 40.4137 6.68332C40.709 7.01331 40.9361 7.39849 41.0819 7.81665C41.2084 8.18402 41.2769 8.56883 41.2851 8.95726C41.2893 9.28033 41.2402 9.60187 41.1399 9.90898C41.059 10.1652 40.9443 10.4095 40.7988 10.6355C40.6792 10.8125 40.5402 10.9757 40.3849 11.1222C40.2872 11.225 40.1775 11.3152 40.0582 11.3911C40.4593 11.6737 40.8021 12.0314 41.0675 12.4445C41.3949 12.9599 41.5571 13.5633 41.5322 14.1736C41.5282 14.6302 41.4447 15.0826 41.2851 15.5103C41.1203 15.9519 40.8741 16.3585 40.5592 16.7091C40.224 17.0753 39.8157 17.3673 39.3608 17.5663C38.8388 17.7929 38.2742 17.9044 37.7053 17.8933L32.0559 17.9007ZM38.8745 9.07352C38.887 8.883 38.8555 8.69211 38.7828 8.51572C38.7097 8.33933 38.5969 8.18215 38.4534 8.05641C38.0644 7.8015 37.6027 7.68153 37.139 7.71494H33.9875V10.4393H37.139C37.6145 10.4765 38.089 10.3566 38.4895 10.0979C38.6297 9.96892 38.7388 9.80954 38.808 9.632C38.8771 9.45446 38.905 9.26342 38.8889 9.07352H38.8745ZM33.9731 15.6847H37.2478C37.7669 15.7361 38.2863 15.588 38.7002 15.2706C38.844 15.128 38.9584 14.9583 39.0364 14.7713C39.1147 14.5842 39.1547 14.3835 39.1547 14.1808C39.1547 13.9782 39.1147 13.7775 39.0364 13.5904C38.9584 13.4033 38.844 13.2336 38.7002 13.0911C38.3004 12.7778 37.798 12.6249 37.2914 12.6625H33.9875L33.9731 15.6847Z" fill="#6B6B6B"/>
<path d="M44.2261 17.8997C44.1641 17.9007 44.1025 17.8894 44.0448 17.8666C43.9872 17.8438 43.9347 17.8098 43.8902 17.7666C43.8456 17.7234 43.8102 17.6719 43.7853 17.615C43.7607 17.558 43.7476 17.4968 43.7466 17.4348V5.97781C43.7457 5.91457 43.7575 5.85178 43.7814 5.79316C43.805 5.73454 43.8404 5.68129 43.8849 5.63657C43.9295 5.59185 43.9829 5.55657 44.0416 5.53283C44.0999 5.50906 44.1628 5.49732 44.2261 5.49812H45.6784C45.7404 5.497 45.8023 5.50857 45.8597 5.53234C45.9173 5.55608 45.9691 5.59152 46.0124 5.63634C46.0583 5.6805 46.095 5.73352 46.1199 5.79221C46.1448 5.85089 46.1575 5.91404 46.1575 5.97781V17.4348C46.1575 17.4986 46.1448 17.5617 46.1199 17.6204C46.095 17.6791 46.0583 17.7321 46.0124 17.7763C45.9691 17.8211 45.9173 17.8565 45.8597 17.8803C45.8023 17.904 45.7404 17.9156 45.6784 17.9145L44.2261 17.8997Z" fill="#6B6B6B"/>
<path d="M57.471 5.49907C57.5342 5.49819 57.5968 5.50993 57.6555 5.53367C57.7141 5.55744 57.7672 5.59272 57.8121 5.63744C57.8567 5.68216 57.8921 5.7354 57.9157 5.79403C57.9393 5.85265 57.9511 5.91543 57.9501 5.97868V7.26457C57.9514 7.3268 57.9399 7.38863 57.916 7.44614C57.8924 7.50365 57.857 7.55561 57.8121 7.59876C57.7682 7.64479 57.7151 7.68138 57.6565 7.70637C57.5978 7.73135 57.5345 7.74417 57.471 7.74407H54.2615V17.4357C54.2624 17.4989 54.2506 17.5617 54.2267 17.6203C54.2031 17.6789 54.1677 17.7322 54.1232 17.7769C54.0786 17.8216 54.0252 17.8569 53.9665 17.8806C53.9082 17.9044 53.8453 17.9161 53.782 17.9152H52.388C52.3247 17.9161 52.2618 17.9044 52.2032 17.8806C52.1448 17.8569 52.0914 17.8216 52.0468 17.7769C52.0019 17.7322 51.9669 17.6789 51.943 17.6203C51.9194 17.5617 51.9076 17.4989 51.9085 17.4357V7.71502H48.6846C48.6207 7.71512 48.5578 7.70227 48.4991 7.67732C48.4405 7.65233 48.3874 7.61574 48.3431 7.56971C48.2986 7.52656 48.2632 7.4746 48.2393 7.41709C48.2157 7.35955 48.2039 7.29775 48.2052 7.23552V5.97868C48.2042 5.91543 48.216 5.85265 48.2399 5.79403C48.2635 5.7354 48.2989 5.68216 48.3435 5.63744C48.388 5.59272 48.4414 5.55744 48.5001 5.53367C48.5584 5.50993 48.6214 5.49819 48.6846 5.49907H57.471Z" fill="#6B6B6B"/>
<path d="M69.727 8.36874C69.5153 7.78885 69.1781 7.26292 68.7393 6.82856C68.2828 6.37598 67.7326 6.0288 67.1273 5.81146C66.3919 5.57074 65.6212 5.45533 64.8471 5.46999H60.4903C60.4284 5.46875 60.3665 5.48025 60.3091 5.50402C60.2514 5.52776 60.1997 5.5632 60.1564 5.60802C60.1105 5.65218 60.0738 5.7052 60.0489 5.76389C60.024 5.82258 60.0112 5.88572 60.0112 5.94949V17.4355C60.0112 17.4993 60.024 17.5624 60.0489 17.6211C60.0738 17.6798 60.1105 17.7328 60.1564 17.777C60.1997 17.8219 60.2514 17.8573 60.3091 17.881C60.3665 17.9048 60.4284 17.9163 60.4903 17.915H64.9563C65.711 17.9289 66.4624 17.8134 67.1781 17.5736C67.7729 17.3663 68.3136 17.0287 68.7612 16.5855C69.1974 16.1507 69.5323 15.6248 69.7414 15.0453C69.9819 14.397 70.1241 13.7162 70.1628 13.0256C70.2064 12.1538 70.2064 11.2748 70.1628 10.403C70.1215 9.7067 69.9747 9.02074 69.727 8.36874ZM67.7519 13.0111C67.7335 13.3737 67.6601 13.7314 67.534 14.0718C67.419 14.3909 67.2354 14.681 66.9965 14.9218C66.7449 15.1697 66.4427 15.3605 66.1108 15.4813C65.7057 15.6263 65.2774 15.6953 64.8471 15.6847H62.3858V7.69311H64.7311C65.1778 7.68226 65.6228 7.75114 66.0455 7.89652C66.3873 8.0134 66.698 8.20727 66.953 8.4632C67.1981 8.70185 67.3865 8.99228 67.5051 9.31322C67.631 9.65116 67.7044 10.0064 67.7227 10.3667C67.784 11.2468 67.7938 12.1298 67.7519 13.0111Z" fill="#6B6B6B"/>
<path d="M80.7072 15.6846H75.5082C75.3329 15.6846 75.1648 15.615 75.0409 15.491C74.917 15.367 74.8472 15.1989 74.8472 15.0235V12.7423H80.1773C80.2392 12.7436 80.3012 12.732 80.3585 12.7083C80.4162 12.6845 80.468 12.6491 80.5112 12.6043C80.5571 12.5601 80.5938 12.5071 80.6187 12.4484C80.6436 12.3897 80.6564 12.3266 80.6564 12.2628V11.0059C80.6528 10.8799 80.601 10.7601 80.5119 10.6709C80.4231 10.5818 80.3031 10.5301 80.1773 10.5264H74.898V8.44863C74.898 8.25594 74.9747 8.07116 75.1107 7.93493C75.247 7.79867 75.4318 7.72215 75.6242 7.72215H80.6128C80.6754 7.72126 80.737 7.70795 80.7944 7.68303C80.8517 7.65808 80.9035 7.62198 80.9467 7.57684C80.9916 7.53369 81.027 7.48172 81.051 7.42418C81.0745 7.36667 81.0863 7.30487 81.085 7.24264V5.97853C81.0857 5.9159 81.0742 5.85371 81.051 5.79558C81.0277 5.73745 80.9933 5.68453 80.9494 5.63991C80.9055 5.59529 80.853 5.55984 80.7953 5.53565C80.7373 5.51148 80.6754 5.49902 80.6128 5.49902H74.76C74.1607 5.49902 73.5852 5.73682 73.1609 6.16036C72.7362 6.58386 72.4966 7.15855 72.4946 7.75847V15.6701C72.4966 16.2623 72.7329 16.8296 73.1523 17.2476C73.5715 17.6657 74.139 17.9007 74.7312 17.9007H80.7072C80.7695 17.9018 80.8314 17.8902 80.8887 17.8665C80.9461 17.8427 80.9982 17.8073 81.0415 17.7624C81.0873 17.7183 81.124 17.6652 81.1489 17.6066C81.1738 17.5479 81.1866 17.4848 81.1866 17.421V16.1641C81.183 16.0381 81.1312 15.9183 81.0421 15.8291C80.953 15.74 80.8334 15.6883 80.7072 15.6846Z" fill="#6B6B6B"/>
<path d="M91.5996 15.6848H86.4003C86.2243 15.6848 86.0556 15.6154 85.9307 15.4916C85.8055 15.3678 85.7344 15.1997 85.7324 15.0237V12.7424H91.0694C91.1317 12.7438 91.1936 12.7322 91.251 12.7084C91.3086 12.6847 91.3604 12.6492 91.4037 12.6044C91.4495 12.5602 91.4862 12.5072 91.5112 12.4485C91.5361 12.3899 91.5488 12.3267 91.5488 12.2629V11.0061C91.5452 10.8801 91.4935 10.7602 91.4043 10.6711C91.3152 10.5819 91.1956 10.5302 91.0694 10.5266H85.7177V8.44878C85.7177 8.2561 85.7944 8.07131 85.9304 7.93505C86.0667 7.79882 86.2515 7.72227 86.4439 7.72227H91.4253C91.4892 7.72237 91.5521 7.70955 91.6108 7.68456C91.6694 7.65961 91.7225 7.62299 91.7668 7.57699C91.8113 7.53384 91.8467 7.48184 91.8706 7.42434C91.8942 7.36683 91.906 7.30499 91.9047 7.2428V5.97868C91.9057 5.91543 91.8939 5.85265 91.87 5.79403C91.8464 5.7354 91.811 5.68216 91.7664 5.63744C91.7219 5.59272 91.6685 5.55744 91.6098 5.53367C91.5515 5.50993 91.4885 5.49819 91.4253 5.49907H85.6161C84.9994 5.49907 84.4075 5.74386 83.9704 6.17966C83.5336 6.61543 83.2871 7.20673 83.2852 7.824V15.5976C83.2852 16.2084 83.5277 16.7942 83.9596 17.2261C84.3912 17.658 84.9768 17.9008 85.5873 17.9008H91.5996C91.6619 17.902 91.7235 17.8904 91.7812 17.8666C91.8385 17.8428 91.8906 17.8074 91.9336 17.7626C91.9798 17.7184 92.0161 17.6654 92.0411 17.6067C92.0663 17.548 92.0791 17.4849 92.0788 17.4211V16.1643C92.0751 16.0382 92.0237 15.9184 91.9345 15.8293C91.8454 15.7401 91.7255 15.6884 91.5996 15.6848Z" fill="#6B6B6B"/>
<path d="M103.995 17.3187L101.555 12.9597C102.265 12.7066 102.876 12.2331 103.298 11.6084C103.702 10.9543 103.908 10.1976 103.893 9.42886C103.927 8.89142 103.841 8.35317 103.641 7.85307C103.442 7.35301 103.133 6.90358 102.739 6.53738C101.783 5.7931 100.585 5.42832 99.3766 5.513H94.8019C94.7396 5.51169 94.678 5.52327 94.6203 5.54704C94.563 5.57077 94.5109 5.60622 94.4679 5.65103C94.4221 5.6952 94.3854 5.74821 94.3605 5.8069C94.3356 5.86559 94.3224 5.92874 94.3228 5.99251V17.435C94.3224 17.4987 94.3356 17.5619 94.3605 17.6206C94.3854 17.6793 94.4221 17.7323 94.4679 17.7764C94.5109 17.8213 94.563 17.8567 94.6203 17.8804C94.678 17.9042 94.7396 17.9158 94.8019 17.9147H96.2543C96.3165 17.9158 96.3781 17.9042 96.4358 17.8804C96.4931 17.8567 96.5453 17.8213 96.5882 17.7764C96.6344 17.7323 96.6708 17.6793 96.6957 17.6206C96.7209 17.5619 96.7337 17.4987 96.7334 17.435V13.2939H99.0863L101.41 17.4204C101.469 17.5387 101.551 17.6447 101.65 17.7328C101.795 17.8548 101.983 17.9148 102.172 17.8999H103.675C103.727 17.9008 103.778 17.891 103.825 17.871C103.873 17.8509 103.916 17.8212 103.951 17.7837C103.988 17.7489 104.017 17.7072 104.037 17.661C104.057 17.6148 104.067 17.5652 104.068 17.5149C104.061 17.4443 104.036 17.3767 103.995 17.3187ZM100.894 10.7221C100.399 10.9833 99.8419 11.1062 99.2822 11.0781H96.7189V7.71432H99.2822C99.8393 7.68721 100.394 7.80222 100.894 8.04852C101.109 8.1916 101.279 8.39202 101.386 8.62703C101.492 8.86205 101.531 9.12221 101.497 9.37801C101.53 9.63587 101.492 9.89787 101.385 10.1351C101.279 10.3723 101.109 10.5754 100.894 10.7221Z" fill="#6B6B6B"/>
</g>
<defs>
<clipPath id="clip0_1031_4756">
<rect width="104" height="19.9998" fill="white" transform="translate(0.0683594)"/>
</clipPath>
</defs>
</svg>
