<svg width="114" height="16" viewBox="0 0 114 16" fill="none" xmlns="http://www.w3.org/2000/svg">
<g clip-path="url(#clip0_1031_4735)">
<path d="M0.599609 8.11921V1.07617L6.99481 1.12417C12.6821 1.17216 13.45 1.20815 14.0379 1.38813C15.6337 1.90406 16.1977 2.68395 16.2936 4.49571C16.3656 5.9955 16.1497 6.7874 15.4657 7.39931C15.2018 7.63928 14.9978 7.85525 15.0218 7.86725C15.0338 7.87925 15.2618 8.01123 15.5017 8.16721C16.2576 8.62315 16.4376 9.17507 16.4376 11.1308C16.4376 12.6906 16.4136 12.8586 16.1377 13.4225C15.8017 14.0824 15.2858 14.5143 14.3979 14.8623C13.9059 15.0543 13.234 15.0783 7.23478 15.1143L0.599609 15.1503V8.11921ZM13.0181 12.8106C13.234 12.7146 13.474 12.5346 13.546 12.4026C13.618 12.2587 13.678 11.5987 13.678 10.9028C13.678 9.727 13.666 9.64301 13.366 9.36704L13.0541 9.07908L8.20666 9.04309L3.35926 9.00709V10.9988V12.9786H7.97869C11.6982 12.9786 12.6821 12.9426 13.0181 12.8106ZM12.7421 6.7394C13.426 6.54743 13.558 6.25947 13.558 5.02364C13.558 4.06377 13.534 3.94378 13.258 3.67982L12.9701 3.37986H8.15866H3.35926V5.11962V6.85939H7.8347C10.5344 6.85939 12.4781 6.81139 12.7421 6.7394Z" fill="#6B6B6B"/>
<path d="M19.4375 8.11866V1.09961H20.7573H22.0772V8.11866V15.1377H20.7573H19.4375V8.11866Z" fill="#6B6B6B"/>
<path d="M31.556 9.2585V3.3793H27.9565H24.3569V2.23945V1.09961H32.8759H41.3948V2.23945V3.3793H37.8552H34.3157V9.2585V15.1377H32.9359H31.556V9.2585Z" fill="#6B6B6B"/>
<path d="M43.5787 8.15591L43.6147 1.16086L44.8265 1.12486L46.0504 1.08887L50.1539 6.7401C52.4096 9.83568 54.2933 12.3793 54.3293 12.3673C54.3773 12.3673 56.2371 9.83568 58.4688 6.7281L62.5363 1.10087H63.6642H64.792V8.11991V15.139H63.5322H62.2723L62.2484 10.3996L62.2124 5.66025L58.7928 10.3876L55.3732 15.127H54.2214L53.0695 15.139L49.6019 10.3876L46.1344 5.62425L46.0984 10.3876L46.0744 15.139H44.8145H43.5547L43.5787 8.15591Z" fill="#6B6B6B"/>
<path d="M66.6757 14.7897C66.7957 14.5978 68.8954 11.4422 71.3311 7.7707L75.7706 1.11161L76.6825 1.09961C77.4024 1.09961 77.6304 1.1476 77.7743 1.31558C77.9903 1.55555 86.8692 15.0057 86.8692 15.0897C86.8692 15.1137 86.1853 15.1377 85.3454 15.1257H83.8096L80.318 9.64245C78.3983 6.63086 76.7785 4.15919 76.7305 4.15919C76.6945 4.15919 75.0507 6.63086 73.0949 9.64245L69.5314 15.1257L67.9956 15.1377H66.4478L66.6757 14.7897Z" fill="#6B6B6B"/>
<path d="M88.6685 8.11866V1.09961H90.0483H91.4281V8.11866V15.1377H90.0483H88.6685V8.11866Z" fill="#6B6B6B"/>
<path d="M94.4522 8.15591L94.4882 1.16086L95.5801 1.12486L96.6839 1.08887L101.939 5.01233C104.843 7.17204 107.915 9.47573 108.79 10.1236C109.654 10.7715 110.398 11.2995 110.434 11.2995C110.47 11.2995 110.518 9.01979 110.53 6.23617L110.566 1.16086L111.742 1.12486L112.906 1.08887V8.11991V15.139H112.222H111.526L104.207 9.78768L96.8879 4.44841L96.8519 9.78768L96.8279 15.139H95.6281H94.4282L94.4522 8.15591Z" fill="#6B6B6B"/>
</g>
<defs>
<clipPath id="clip0_1031_4735">
<rect width="113.746" height="15.2379" fill="white" transform="translate(0 0.380859)"/>
</clipPath>
</defs>
</svg>
