<svg width="103" height="20" viewBox="0 0 103 20" fill="none" xmlns="http://www.w3.org/2000/svg">
<path d="M7.77561 0.0911227C7.57481 0.17718 4.25441 2.0776 2.42568 3.15331C1.54359 3.66965 1.40016 3.8346 1.4145 4.30791C1.42167 4.67365 1.63682 4.86728 2.76274 5.52705C3.63049 6.03622 3.88867 6.15813 4.12532 6.15813C4.42653 6.15813 4.34047 6.20116 7.87601 4.17165C8.98042 3.52623 8.9589 3.57643 8.9589 1.96286C8.9589 0.499893 8.90153 0.291922 8.42104 0.0911227C8.12701 -0.0307912 8.0553 -0.0307912 7.77561 0.0911227Z" fill="#6B6B6B"/>
<path d="M10.4869 0.105536C10.0709 0.313507 10.0494 0.406735 10.0279 1.93424C10.0064 3.06016 10.0279 3.35418 10.1068 3.49044C10.2215 3.66973 10.5299 3.85618 12.9825 5.26895C14.2447 5.99326 14.5818 6.1582 14.8113 6.1582C15.0336 6.1582 15.3204 6.02912 16.2025 5.51995C17.3571 4.85301 17.5651 4.65221 17.5651 4.22192C17.5651 3.8275 17.3284 3.61953 16.0161 2.85936C12.2654 0.68642 11.1251 0.0481649 10.9315 0.0194792C10.8167 -0.00203498 10.6159 0.0409935 10.4869 0.105536Z" fill="#6B6B6B"/>
<path d="M0.296093 6.04461L0.0307478 6.28844L0.00923339 9.88131C-0.0122811 13.7969 -0.0122811 13.8256 0.396494 14.0981C0.783754 14.3491 1.07778 14.2702 2.28259 13.5746C3.78143 12.7068 3.67386 13.008 3.63801 9.88848C3.61649 7.57212 3.60932 7.45021 3.47306 7.26375C3.387 7.15618 2.82763 6.78327 2.21805 6.43187C0.920012 5.68604 0.733553 5.65018 0.296093 6.04461Z" fill="#6B6B6B"/>
<path d="M17.6374 5.93642C16.5761 6.51013 15.6581 7.09101 15.529 7.25596C15.3856 7.44958 15.3784 7.54998 15.3569 9.94523C15.3426 12.2544 15.3497 12.4481 15.4717 12.6775C15.6653 13.0433 17.6876 14.2194 18.1179 14.2266C18.4837 14.2266 18.7849 14.0186 18.9068 13.6815C19.0359 13.3015 19.0287 6.66073 18.8996 6.34519C18.6845 5.83602 18.1466 5.65673 17.6374 5.93642ZM18.4263 6.43842C18.4693 6.53164 18.498 7.79381 18.498 10.0385C18.498 13.158 18.4837 13.5094 18.3761 13.6313C18.3116 13.703 18.204 13.7604 18.1323 13.7604C18.0175 13.7604 16.196 12.7421 15.9521 12.5413C15.8589 12.4624 15.8446 12.1182 15.8446 10.0385C15.8446 8.71175 15.8733 7.58584 15.9091 7.53564C16.0167 7.36353 17.953 6.30216 18.1538 6.30216C18.2757 6.30216 18.3761 6.35236 18.4263 6.43842Z" fill="#6B6B6B"/>
<path d="M3.68099 13.9899C2.29689 14.7572 1.6156 15.1804 1.53672 15.3381C1.34309 15.711 1.37894 16.0696 1.62995 16.3349C1.73752 16.4569 3.17181 17.3246 4.81408 18.2784C8.04842 20.1358 8.09145 20.1573 8.57911 19.8561C8.92335 19.6481 8.97355 19.3685 8.94486 17.9055L8.92335 16.629L8.7082 16.4282C8.49306 16.2202 4.79974 14.0544 4.41965 13.911C4.12562 13.7963 4.01088 13.8106 3.68099 13.9899Z" fill="#6B6B6B"/>
<path d="M14.3017 14.0181C14.1081 14.1256 13.5272 14.4555 13.0108 14.7496C12.5016 15.0508 11.6769 15.5241 11.1821 15.8038C10.6944 16.0906 10.2283 16.399 10.1637 16.4922C10.0203 16.6858 9.9988 16.9225 10.0203 18.4428L10.0347 19.5114L10.2785 19.7552C10.4793 19.956 10.5797 19.999 10.8235 19.999C11.0889 19.999 11.4044 19.8413 13.1112 18.8588C14.2013 18.2277 15.5926 17.4245 16.2021 17.0731C17.0914 16.5639 17.3352 16.3846 17.4356 16.191C17.7655 15.5599 17.5719 15.3018 16.2021 14.5201C15.5997 14.1758 15.0117 13.8746 14.8826 13.8603C14.732 13.8316 14.5527 13.8818 14.3017 14.0181ZM15.8651 14.8786C16.9695 15.5169 17.0627 15.5958 17.0627 15.8038C17.0627 16.0117 16.9767 16.0834 15.8077 16.7504C15.2555 17.0659 13.9216 17.8333 12.8459 18.4572C10.3215 19.913 10.4434 19.9417 10.4793 17.9552L10.5008 16.8077L10.9311 16.5352C11.8419 15.9472 14.6674 14.3408 14.7894 14.3408C14.8611 14.3336 15.3487 14.5774 15.8651 14.8786Z" fill="#6B6B6B"/>
<path d="M35.8831 14.9286C35.8831 14.9286 34.5199 15.8886 32.5039 15.8886C29.1439 15.8886 26.2063 13.623 26.2063 10.0326C26.2063 6.61503 28.5487 3.58144 32.5423 3.58144C33.7711 3.58144 34.8271 3.86944 35.8255 4.48384V7.07583C35.8255 7.07583 34.4047 6.03903 32.6383 6.03903C30.2575 6.03903 28.8943 7.61342 28.8943 9.99421C28.8943 11.9526 30.2383 13.4502 32.6383 13.4502C33.9823 13.4502 35.1151 12.8166 35.8831 12.2982V14.9286ZM48.8583 15.6006H46.4007V14.007C46.4007 14.007 45.3063 15.8886 42.5607 15.8886C39.1623 15.8886 36.9927 13.2582 36.9927 9.76381C36.9927 6.46143 38.9703 3.58144 42.5991 3.58144C44.2503 3.58144 45.7671 4.27264 46.4007 5.34783V3.81184H48.8583V15.6006ZM46.2855 9.57181C46.2855 7.45982 44.9799 5.84703 43.0599 5.84703C40.8711 5.84703 39.7959 7.74782 39.7959 9.72541C39.7959 12.0102 40.9287 13.6038 42.9447 13.6038C45.2871 13.6038 46.2855 11.607 46.2855 9.57181ZM61.5731 15.6006H58.9619C58.9619 15.6006 58.9619 11.5494 58.9619 8.89982C58.9619 6.73023 58.2323 6.00063 56.6964 6.00063C54.5076 6.00063 53.97 8.03582 53.97 9.18782C53.97 11.7798 53.97 15.6006 53.97 15.6006H51.3588V3.81184H53.8932V5.46303C53.8932 5.46303 54.6996 3.58144 57.5219 3.58144C60.0179 3.58144 61.5731 5.15584 61.5731 7.72862C61.5731 10.2438 61.5731 13.0854 61.5731 15.6006ZM75.0999 15.6006H72.6423V14.007C72.6423 14.007 71.5479 15.8886 68.8023 15.8886C65.404 15.8886 63.2344 13.2582 63.2344 9.76381C63.2344 6.46143 65.212 3.58144 68.8407 3.58144C70.4919 3.58144 72.0087 4.27264 72.6423 5.34783V3.81184H75.0999V15.6006ZM72.5271 9.57181C72.5271 7.45982 71.2215 5.84703 69.3015 5.84703C67.1128 5.84703 66.0376 7.74782 66.0376 9.72541C66.0376 12.0102 67.1704 13.6038 69.1863 13.6038C71.5287 13.6038 72.5271 11.607 72.5271 9.57181ZM88.7363 15.6006H86.2788V14.007C86.2788 14.007 85.1844 15.8886 82.4388 15.8886C79.0404 15.8886 76.8708 13.2582 76.8708 9.76381C76.8708 6.46143 78.8484 3.58144 82.4772 3.58144C84.1284 3.58144 85.6452 4.27264 86.2788 5.34783V3.81184H88.7363V15.6006ZM86.1636 9.57181C86.1636 7.45982 84.858 5.84703 82.938 5.84703C80.7492 5.84703 79.674 7.74782 79.674 9.72541C79.674 12.0102 80.8068 13.6038 82.8228 13.6038C85.1652 13.6038 86.1636 11.607 86.1636 9.57181ZM101.451 15.6006H98.84C98.84 15.6006 98.84 11.5494 98.84 8.89982C98.84 6.73023 98.1104 6.00063 96.5744 6.00063C94.3856 6.00063 93.848 8.03582 93.848 9.18782C93.848 11.7798 93.848 15.6006 93.848 15.6006H91.2368V3.81184H93.7712V5.46303C93.7712 5.46303 94.5776 3.58144 97.4 3.58144C99.896 3.58144 101.451 5.15584 101.451 7.72862C101.451 10.2438 101.451 13.0854 101.451 15.6006Z" fill="#6B6B6B"/>
</svg>
