<svg width="100" height="20" viewBox="0 0 100 20" fill="none" xmlns="http://www.w3.org/2000/svg">
<g clip-path="url(#clip0_1031_4744)">
<path d="M21.7831 19.9989H14.5213L14.4617 19.9513L5.47363 12.9514L9.15221 9.99902L21.7236 19.9513L21.7831 19.9989Z" fill="#6B6B6B"/>
<path d="M21.7831 0H14.5213L14.4617 0.0476186L5.47363 7.04754L9.15221 9.99989L21.7236 0.0476186L21.7831 0Z" fill="#6B6B6B"/>
<path d="M5.47382 12.9523V19.9998L5.41429 19.9522L1.03334 16.4998V16.4879L0.961914 16.4403V3.55949L1.03334 3.51187V3.49996L5.41429 0.0476186L5.47382 0V7.04754V12.9523Z" fill="#6B6B6B"/>
<path d="M27.3389 16.9454V3.05664H29.4638V8.83434H29.7972C30.6583 7.87602 32.3805 5.95938 34.9639 3.05664H37.7555C36.7139 4.20941 34.6305 6.48715 31.5055 9.88987C32.5888 11.0704 34.7555 13.4176 37.9916 16.9454H35.1027C34.2277 15.9593 32.4638 14.0009 29.7972 11.0565H29.4638V16.9454H27.3389Z" fill="#6B6B6B"/>
<path d="M38.5615 16.9454C39.2143 14.6398 40.5337 10.001 42.5059 3.05664H46.2837C46.9364 5.36216 48.2559 10.001 50.2282 16.9454H48.0198C47.867 16.4037 47.5614 15.3064 47.1031 13.6676H41.6587C41.5198 14.2093 41.2142 15.3064 40.742 16.9454H38.5615ZM42.2282 11.6955H46.5892C46.2559 10.4732 45.5892 8.0288 44.5754 4.38996H44.242C43.8948 5.61216 43.2282 8.04268 42.2282 11.6955Z" fill="#6B6B6B"/>
<path d="M51.5894 16.9454V3.05664H57.1448C58.992 3.05664 60.4087 3.52886 61.381 4.47329C62.381 5.41772 62.8671 6.83437 62.8671 8.70931V11.3066C62.8671 13.2093 62.3671 14.6121 61.381 15.5426C60.3948 16.4731 58.992 16.9315 57.1448 16.9315C55.9087 16.9454 54.0615 16.9454 51.5894 16.9454ZM53.7559 15.0148H57.1587C58.3532 15.0148 59.256 14.7093 59.8254 14.0982C60.4087 13.4731 60.7004 12.5704 60.7004 11.3621V8.62599C60.7004 7.4177 60.4087 6.51493 59.8254 5.91771C59.2421 5.3205 58.3532 5.02883 57.1587 5.02883H53.7559V15.0148Z" fill="#6B6B6B"/>
<path d="M65.2969 16.9454V3.05664H74.0329V5.01495H67.4358V8.98707H73.4912V10.9454H67.4358V15.0148H74.1302V16.9454C72.6579 16.9454 69.7135 16.9454 65.2969 16.9454Z" fill="#6B6B6B"/>
<path d="M76.3667 16.9454V3.05664H80.4916C81.1167 5.13995 82.3667 9.29264 84.2417 15.5148H84.575V3.05664H86.6861V16.9454H82.5611C81.9361 14.862 80.6861 10.7093 78.8111 4.47329H78.4778V16.9454H76.3667Z" fill="#6B6B6B"/>
<path d="M88.5605 16.9454C89.2134 14.6398 90.5328 10.001 92.505 3.05664H96.2826C96.9359 5.36216 98.2552 10.001 100.227 16.9454H98.019C97.8663 16.4037 97.5601 15.3064 97.1022 13.6676H91.6577C91.5189 14.2093 91.2133 15.3064 90.7411 16.9454H88.5605ZM92.2273 11.6955H96.5879C96.2554 10.4732 95.5883 8.0288 94.5744 4.38996H94.2411C93.8939 5.61216 93.2272 8.04268 92.2273 11.6955Z" fill="#6B6B6B"/>
</g>
<defs>
<clipPath id="clip0_1031_4744">
<rect width="98.8889" height="19.9998" fill="white" transform="translate(0.962402)"/>
</clipPath>
</defs>
</svg>
