<svg width="68" height="68" viewBox="0 0 68 68" fill="none" xmlns="http://www.w3.org/2000/svg">
<g clip-path="url(#clip0_1872_38487)">
<path d="M68 33.6564C68 38.2087 66.1231 42.6095 64.4774 46.5738C62.8317 50.5381 60.2876 54.4578 57.2009 57.5491C54.1142 60.6404 50.4048 63.304 46.3129 65.0055C42.3633 66.6447 37.8978 67.9988 33.3522 67.9988C28.8066 67.9988 24.2432 66.8763 20.2936 65.2372C16.1928 63.5356 13.3908 59.8386 10.304 56.7384C7.21732 53.6472 3.75699 50.743 2.05795 46.6362C0.358922 42.5293 0.0831646 38.2087 0.0831646 33.6564C0.0831646 29.1042 -0.450565 24.2757 1.1862 20.3114C2.88523 16.2046 6.4701 12.9263 9.56572 9.83502C12.6524 6.74376 16.0772 3.50996 20.178 1.80843C24.1276 0.169263 28.8066 0 33.3522 0C37.8978 0 42.301 0.828494 46.2506 2.46766C50.3514 4.16919 54.301 6.48541 57.3877 9.58558C60.4744 12.6768 63.152 16.4897 64.851 20.5876C66.4878 24.543 68 29.1042 68 33.6564Z" fill="#6FC7BA"/>
<path d="M35.6649 51.9903L42.8702 53.0593L45.7346 33.6565L42.8702 14.2448L35.6649 15.3138L37.7198 29.2735L22.642 17.6479L18.2031 23.4473L31.4307 33.6565L18.2031 43.8568L22.642 49.6651L37.7198 38.0306L35.6649 51.9903Z" fill="white"/>
</g>
<defs>
<clipPath id="clip0_1872_38487">
<rect width="68" height="68" fill="white"/>
</clipPath>
</defs>
</svg>
