<?xml version="1.0" encoding="UTF-8"?>
<svg id="Layer_1" data-name="Layer 1" xmlns="http://www.w3.org/2000/svg" viewBox="0 0 80.66 87.96">
  <defs>
    <style>
      .cls-1 {
        fill: #fff;
      }
    </style>
  </defs>
  <path class="cls-1" d="M40.22,38.67c10.66,0,19.33-8.67,19.33-19.33S50.88,0,40.22,0s-19.33,8.67-19.33,19.33,8.67,19.33,19.33,19.33ZM40.22,3.5c8.73,0,15.83,7.1,15.83,15.83s-7.1,15.83-15.83,15.83-15.83-7.1-15.83-15.83,7.1-15.83,15.83-15.83Z"/>
  <polygon class="cls-1" points="49 25.53 42.05 18.58 42.05 7.88 38.39 7.88 38.39 20.09 46.42 28.11 49 25.53"/>
  <path class="cls-1" d="M33.64,65.01l1.42-1.03,4.9-14.79h.75l4.9,14.79,1.42,1.03h32.21l1.42-1.97-5.24-15.82-1.42-1.03H6.66l-1.42,1.03L0,63.04l1.42,1.97h12.34v21.21l1.75,1.75h49.31l1.75-1.75v-13.98h-3.5v12.23h-21.15v-12.16h-3.5v12.16h-21.16v-19.46h16.37ZM72.92,49.19l4.24,12.82h-29.05l-4.25-12.82h29.05ZM7.75,49.19h29.05l-4.24,12.82H3.5l4.24-12.82Z"/>
</svg>