<?xml version="1.0" encoding="UTF-8"?>
<svg id="Layer_1" data-name="Layer 1" xmlns="http://www.w3.org/2000/svg" viewBox="0 0 111.29 90.64">
  <defs>
    <style>
      .cls-1 {
        fill: #fff;
      }
    </style>
  </defs>
  <path class="cls-1" d="M9.82,81.05l-5.48-6.5,45.13-37.74,9.78,11.61,2.11.18,3.92-3.3,3.84,4.56c1.01-.63,2.07-1.19,3.17-1.67l-4.33-5.14,10.68-8.99,2.16,12.07c.53-.03,1.06-.06,1.6-.06.66,0,1.31.03,1.96.08l-2.62-14.7,2.72-2.29.18-2.11-14.08-16.71-2.11-.18-2.63,2.22L31.41,0l-1.93,2.77,19.8,23.5-3.92,3.3-.18,2.11,1.72,2.05L.24,72.77l-.24,2.82,8.05,9.56,2.82.24,39.04-32.61-2.58-3.06-37.51,31.33ZM36.34,5.49l26.38,9.47-10.77,9.07-15.61-18.53ZM69.23,13.39l12.14,14.42-20.8,17.52-12.14-14.42,20.8-17.52Z"/>
  <path class="cls-1" d="M82.4,90.64c-10.74,0-19.47-8.74-19.47-19.47s8.74-19.47,19.47-19.47,19.47,8.74,19.47,19.47-8.74,19.47-19.47,19.47ZM82.4,55.7c-8.53,0-15.47,6.94-15.47,15.47s6.94,15.47,15.47,15.47,15.47-6.94,15.47-15.47-6.94-15.47-15.47-15.47Z"/>
  <polygon class="cls-1" points="101.92 38.07 103.75 45.61 111.29 47.44 103.75 49.27 101.92 56.82 100.08 49.27 92.54 47.44 100.08 45.61 101.92 38.07"/>
</svg>